<svg width="303" height="181" viewBox="0 0 303 181" fill="none" xmlns="http://www.w3.org/2000/svg">
<path d="M26.4122 121.447H71.4897V86.6793H26.4122L26.4122 121.447Z" fill="#F5F5F5"/>
<path d="M37.7068 121.202C37.7674 121.202 37.8193 113.451 37.8193 103.894C37.8193 94.3332 37.7674 86.5858 37.7068 86.5858C37.6462 86.5858 37.5942 94.3332 37.5942 103.894C37.5942 113.455 37.6418 121.202 37.7068 121.202Z" fill="#EBEBEB"/>
<path d="M30.2351 117.443H33.689V113.535H30.2351V117.443Z" fill="#FAFAFA"/>
<path d="M57.7374 86.7677H52.6172V94.1861H57.7374V86.7677Z" fill="#EBEBEB"/>
<path d="M57.7374 113.927H52.6172V121.345H57.7374V113.927Z" fill="#EBEBEB"/>
<path d="M88.6705 121.938H14.2524V179.334H88.6705V121.938Z" fill="#EBEBEB"/>
<path d="M70.0248 178.931C69.9426 178.931 69.8777 166.137 69.8777 150.361C69.8777 134.576 69.9426 121.787 70.0248 121.787C70.1071 121.787 70.172 134.576 70.172 150.361C70.172 166.137 70.1027 178.931 70.0248 178.931Z" fill="#E0E0E0"/>
<path d="M82.3556 166.271H76.6511V172.72H82.3556V166.271Z" fill="#FAFAFA"/>
<path d="M45.4065 122.085H36.9536V134.334H45.4065V122.085Z" fill="#E0E0E0"/>
<path d="M45.4065 166.916H36.9536V179.165H45.4065V166.916Z" fill="#E0E0E0"/>
<path d="M146.81 20.8327C146.81 20.8933 146.326 20.9453 145.728 20.9453C145.131 20.9453 144.646 20.8933 144.646 20.8327C144.646 20.7722 145.131 20.7202 145.728 20.7202C146.326 20.7202 146.81 20.7678 146.81 20.8327Z" fill="#EBEBEB"/>
<path d="M151.138 20.8326C151.138 20.8932 150.654 20.9452 150.056 20.9452C149.459 20.9452 148.974 20.8932 148.974 20.8326C148.974 20.772 149.459 20.7201 150.056 20.7201C150.654 20.7201 151.138 20.7677 151.138 20.8326Z" fill="#EBEBEB"/>
<path d="M155.467 20.8326C155.467 20.8932 154.982 20.9452 154.385 20.9452C153.787 20.9452 153.302 20.8932 153.302 20.8326C153.302 20.772 153.787 20.7201 154.385 20.7201C154.982 20.7201 155.467 20.7677 155.467 20.8326Z" fill="#EBEBEB"/>
<path d="M159.795 20.8326C159.795 20.8932 159.31 20.9452 158.713 20.9452C158.115 20.9452 157.631 20.8932 157.631 20.8326C157.631 20.772 158.115 20.7201 158.713 20.7201C159.31 20.7201 159.795 20.7677 159.795 20.8326Z" fill="#EBEBEB"/>
<path d="M164.123 20.8326C164.123 20.8932 163.638 20.9452 163.041 20.9452C162.443 20.9452 161.959 20.8932 161.959 20.8326C161.959 20.772 162.443 20.7201 163.041 20.7201C163.638 20.7201 164.123 20.7677 164.123 20.8326Z" fill="#EBEBEB"/>
<path d="M168.451 20.8326C168.451 20.8932 167.966 20.9452 167.369 20.9452C166.772 20.9452 166.287 20.8932 166.287 20.8326C166.287 20.772 166.772 20.7201 167.369 20.7201C167.966 20.7201 168.451 20.7677 168.451 20.8326Z" fill="#EBEBEB"/>
<path d="M172.779 20.8326C172.779 20.8932 172.294 20.9452 171.697 20.9452C171.1 20.9452 170.615 20.8932 170.615 20.8326C170.615 20.772 171.1 20.7201 171.697 20.7201C172.294 20.7201 172.779 20.7677 172.779 20.8326Z" fill="#EBEBEB"/>
<path d="M177.107 20.8326C177.107 20.8932 176.622 20.9452 176.025 20.9452C175.428 20.9452 174.943 20.8932 174.943 20.8326C174.943 20.772 175.428 20.7201 176.025 20.7201C176.622 20.7201 177.107 20.7677 177.107 20.8326Z" fill="#EBEBEB"/>
<path d="M181.435 20.8326C181.435 20.8932 180.951 20.9452 180.353 20.9452C179.756 20.9452 179.271 20.8932 179.271 20.8326C179.271 20.772 179.756 20.7201 180.353 20.7201C180.951 20.7201 181.435 20.7677 181.435 20.8326Z" fill="#EBEBEB"/>
<path d="M185.764 20.8326C185.764 20.8932 185.279 20.9452 184.682 20.9452C184.084 20.9452 183.6 20.8932 183.6 20.8326C183.6 20.772 184.084 20.7201 184.682 20.7201C185.279 20.7201 185.764 20.7677 185.764 20.8326Z" fill="#EBEBEB"/>
<path d="M190.092 20.8326C190.092 20.8932 189.607 20.9452 189.01 20.9452C188.412 20.9452 187.928 20.8932 187.928 20.8326C187.928 20.772 188.412 20.7201 189.01 20.7201C189.607 20.7201 190.092 20.7677 190.092 20.8326Z" fill="#EBEBEB"/>
<path d="M194.42 20.8326C194.42 20.8932 193.935 20.9452 193.338 20.9452C192.741 20.9452 192.256 20.8932 192.256 20.8326C192.256 20.772 192.741 20.7201 193.338 20.7201C193.935 20.7201 194.42 20.7677 194.42 20.8326Z" fill="#EBEBEB"/>
<path d="M198.748 20.8326C198.748 20.8932 198.263 20.9452 197.666 20.9452C197.069 20.9452 196.584 20.8932 196.584 20.8326C196.584 20.772 197.069 20.7201 197.666 20.7201C198.263 20.7201 198.748 20.7677 198.748 20.8326Z" fill="#EBEBEB"/>
<path d="M203.076 20.8326C203.076 20.8932 202.591 20.9452 201.994 20.9452C201.397 20.9452 200.912 20.8932 200.912 20.8326C200.912 20.772 201.397 20.7201 201.994 20.7201C202.591 20.7201 203.076 20.7677 203.076 20.8326Z" fill="#EBEBEB"/>
<path d="M207.404 20.8326C207.404 20.8932 206.92 20.9452 206.322 20.9452C205.725 20.9452 205.24 20.8932 205.24 20.8326C205.24 20.772 205.725 20.7201 206.322 20.7201C206.92 20.7201 207.404 20.7677 207.404 20.8326Z" fill="#EBEBEB"/>
<path d="M211.732 20.8326C211.732 20.8932 211.248 20.9452 210.65 20.9452C210.053 20.9452 209.568 20.8932 209.568 20.8326C209.568 20.772 210.053 20.7201 210.65 20.7201C211.248 20.7201 211.732 20.7677 211.732 20.8326Z" fill="#EBEBEB"/>
<path d="M216.061 20.8326C216.061 20.8932 215.576 20.9452 214.979 20.9452C214.381 20.9452 213.896 20.8932 213.896 20.8326C213.896 20.772 214.381 20.7201 214.979 20.7201C215.576 20.7201 216.061 20.7677 216.061 20.8326Z" fill="#EBEBEB"/>
<path d="M220.389 20.8326C220.389 20.8932 219.904 20.9452 219.307 20.9452C218.709 20.9452 218.225 20.8932 218.225 20.8326C218.225 20.772 218.709 20.7201 219.307 20.7201C219.904 20.7201 220.389 20.7677 220.389 20.8326Z" fill="#EBEBEB"/>
<path d="M224.717 20.8326C224.717 20.8932 224.232 20.9452 223.635 20.9452C223.037 20.9452 222.553 20.8932 222.553 20.8326C222.553 20.772 223.037 20.7201 223.635 20.7201C224.232 20.7201 224.717 20.7677 224.717 20.8326Z" fill="#EBEBEB"/>
<path d="M229.045 20.8326C229.045 20.8932 228.56 20.9452 227.963 20.9452C227.366 20.9452 226.881 20.8932 226.881 20.8326C226.881 20.772 227.366 20.7201 227.963 20.7201C228.56 20.7201 229.045 20.7677 229.045 20.8326Z" fill="#EBEBEB"/>
<path d="M233.373 20.8326C233.373 20.8932 232.888 20.9452 232.291 20.9452C231.694 20.9452 231.209 20.8932 231.209 20.8326C231.209 20.772 231.694 20.7201 232.291 20.7201C232.888 20.7201 233.373 20.7677 233.373 20.8326Z" fill="#EBEBEB"/>
<path d="M237.701 20.8326C237.701 20.8932 237.216 20.9452 236.619 20.9452C236.022 20.9452 235.537 20.8932 235.537 20.8326C235.537 20.772 236.022 20.7201 236.619 20.7201C237.216 20.7201 237.701 20.7677 237.701 20.8326Z" fill="#EBEBEB"/>
<path d="M242.029 20.8326C242.029 20.8932 241.545 20.9452 240.947 20.9452C240.35 20.9452 239.865 20.8932 239.865 20.8326C239.865 20.772 240.35 20.7201 240.947 20.7201C241.545 20.7201 242.029 20.7677 242.029 20.8326Z" fill="#EBEBEB"/>
<path d="M243.137 24.0485C243.077 24.0485 243.025 23.5637 243.025 22.9664C243.025 22.3692 243.077 21.8844 243.137 21.8844C243.198 21.8844 243.25 22.3692 243.25 22.9664C243.25 23.568 243.198 24.0485 243.137 24.0485Z" fill="#EBEBEB"/>
<path d="M243.137 28.3766C243.077 28.3766 243.025 27.8918 243.025 27.2946C243.025 26.6973 243.077 26.2125 243.137 26.2125C243.198 26.2125 243.25 26.6973 243.25 27.2946C243.25 27.8962 243.198 28.3766 243.137 28.3766Z" fill="#EBEBEB"/>
<path d="M243.137 32.7048C243.077 32.7048 243.025 32.2201 243.025 31.6228C243.025 31.0255 243.077 30.5408 243.137 30.5408C243.198 30.5408 243.25 31.0255 243.25 31.6228C243.25 32.2244 243.198 32.7048 243.137 32.7048Z" fill="#EBEBEB"/>
<path d="M243.137 37.033C243.077 37.033 243.025 36.5482 243.025 35.9509C243.025 35.3536 243.077 34.8689 243.137 34.8689C243.198 34.8689 243.25 35.3536 243.25 35.9509C243.25 36.5525 243.198 37.033 243.137 37.033Z" fill="#EBEBEB"/>
<path d="M243.137 41.3611C243.077 41.3611 243.025 40.8763 243.025 40.2791C243.025 39.6818 243.077 39.197 243.137 39.197C243.198 39.197 243.25 39.6818 243.25 40.2791C243.25 40.8807 243.198 41.3611 243.137 41.3611Z" fill="#EBEBEB"/>
<path d="M243.981 44.8452C243.981 44.8972 243.622 44.9448 243.137 44.9534L243.029 44.9578V44.8452C243.029 44.763 243.029 44.6851 243.025 44.6072C243.025 44.0099 243.077 43.5251 243.137 43.5251C243.198 43.5251 243.25 44.0099 243.25 44.6072C243.25 44.6851 243.25 44.763 243.246 44.8452L243.137 44.737C243.622 44.75 243.981 44.7933 243.981 44.8452Z" fill="#EBEBEB"/>
<path d="M248.31 44.8452C248.31 44.9058 247.825 44.9577 247.228 44.9577C246.63 44.9577 246.146 44.9058 246.146 44.8452C246.146 44.7846 246.63 44.7327 247.228 44.7327C247.825 44.7327 248.31 44.7846 248.31 44.8452Z" fill="#EBEBEB"/>
<path d="M252.638 44.8452C252.638 44.9058 252.153 44.9577 251.556 44.9577C250.958 44.9577 250.474 44.9058 250.474 44.8452C250.474 44.7846 250.958 44.7327 251.556 44.7327C252.153 44.7327 252.638 44.7846 252.638 44.8452Z" fill="#EBEBEB"/>
<path d="M256.966 44.8452C256.966 44.9058 256.481 44.9577 255.884 44.9577C255.287 44.9577 254.802 44.9058 254.802 44.8452C254.802 44.7846 255.287 44.7327 255.884 44.7327C256.481 44.7327 256.966 44.7846 256.966 44.8452Z" fill="#EBEBEB"/>
<path d="M261.294 44.8452C261.294 44.9058 260.809 44.9577 260.212 44.9577C259.615 44.9577 259.13 44.9058 259.13 44.8452C259.13 44.7846 259.615 44.7327 260.212 44.7327C260.809 44.7327 261.294 44.7846 261.294 44.8452Z" fill="#EBEBEB"/>
<path d="M265.622 44.8452C265.622 44.9058 265.137 44.9577 264.54 44.9577C263.943 44.9577 263.458 44.9058 263.458 44.8452C263.458 44.7846 263.943 44.7327 264.54 44.7327C265.137 44.7327 265.622 44.7846 265.622 44.8452Z" fill="#EBEBEB"/>
<path d="M269.95 44.8452C269.95 44.9058 269.465 44.9577 268.868 44.9577C268.271 44.9577 267.786 44.9058 267.786 44.8452C267.786 44.7846 268.271 44.7327 268.868 44.7327C269.465 44.7327 269.95 44.7846 269.95 44.8452Z" fill="#EBEBEB"/>
<path d="M274.278 44.8452C274.278 44.9058 273.794 44.9577 273.196 44.9577C272.599 44.9577 272.114 44.9058 272.114 44.8452C272.114 44.7846 272.599 44.7327 273.196 44.7327C273.794 44.7327 274.278 44.7846 274.278 44.8452Z" fill="#EBEBEB"/>
<path d="M278.606 44.8452C278.606 44.9058 278.122 44.9577 277.524 44.9577C276.927 44.9577 276.442 44.9058 276.442 44.8452C276.442 44.7846 276.927 44.7327 277.524 44.7327C278.122 44.7327 278.606 44.7846 278.606 44.8452Z" fill="#EBEBEB"/>
<path d="M280.29 47.494C280.229 47.494 280.177 47.0093 280.177 46.412C280.177 45.8147 280.229 45.33 280.29 45.33C280.351 45.33 280.403 45.8147 280.403 46.412C280.403 47.0093 280.351 47.494 280.29 47.494Z" fill="#EBEBEB"/>
<path d="M280.29 51.8222C280.229 51.8222 280.177 51.3374 280.177 50.7401C280.177 50.1428 280.229 49.6581 280.29 49.6581C280.351 49.6581 280.403 50.1428 280.403 50.7401C280.403 51.3374 280.351 51.8222 280.29 51.8222Z" fill="#EBEBEB"/>
<path d="M280.29 56.1503C280.229 56.1503 280.177 55.6655 280.177 55.0682C280.177 54.471 280.229 53.9862 280.29 53.9862C280.351 53.9862 280.403 54.471 280.403 55.0682C280.403 55.6655 280.351 56.1503 280.29 56.1503Z" fill="#EBEBEB"/>
<path d="M280.29 60.4784C280.229 60.4784 280.177 59.9936 280.177 59.3964C280.177 58.7991 280.229 58.3143 280.29 58.3143C280.351 58.3143 280.403 58.7991 280.403 59.3964C280.403 59.9936 280.351 60.4784 280.29 60.4784Z" fill="#EBEBEB"/>
<path d="M280.29 64.8065C280.229 64.8065 280.177 64.3218 280.177 63.7245C280.177 63.1272 280.229 62.6425 280.29 62.6425C280.351 62.6425 280.403 63.1272 280.403 63.7245C280.403 64.3218 280.351 64.8065 280.29 64.8065Z" fill="#EBEBEB"/>
<path d="M280.29 69.1347C280.229 69.1347 280.177 68.6499 280.177 68.0526C280.177 67.4553 280.229 66.9706 280.29 66.9706C280.351 66.9706 280.403 67.4553 280.403 68.0526C280.403 68.6499 280.351 69.1347 280.29 69.1347Z" fill="#EBEBEB"/>
<path d="M280.29 73.4629C280.229 73.4629 280.177 72.9781 280.177 72.3809C280.177 71.7836 280.229 71.2988 280.29 71.2988C280.351 71.2988 280.403 71.7836 280.403 72.3809C280.403 72.9781 280.351 73.4629 280.29 73.4629Z" fill="#EBEBEB"/>
<path d="M280.29 77.791C280.229 77.791 280.177 77.3063 280.177 76.709C280.177 76.1117 280.229 75.627 280.29 75.627C280.351 75.627 280.403 76.1117 280.403 76.709C280.403 77.3063 280.351 77.791 280.29 77.791Z" fill="#EBEBEB"/>
<path d="M280.29 82.1191C280.229 82.1191 280.177 81.6344 280.177 81.0371C280.177 80.4398 280.229 79.9551 280.29 79.9551C280.351 79.9551 280.403 80.4398 280.403 81.0371C280.403 81.6344 280.351 82.1191 280.29 82.1191Z" fill="#EBEBEB"/>
<path d="M280.29 86.4473C280.229 86.4473 280.177 85.9625 280.177 85.3652C280.177 84.768 280.229 84.2832 280.29 84.2832C280.351 84.2832 280.403 84.768 280.403 85.3652C280.403 85.9625 280.351 86.4473 280.29 86.4473Z" fill="#EBEBEB"/>
<path d="M280.29 90.7754C280.229 90.7754 280.177 90.2906 280.177 89.6934C280.177 89.0961 280.229 88.6113 280.29 88.6113C280.351 88.6113 280.403 89.0961 280.403 89.6934C280.403 90.2906 280.351 90.7754 280.29 90.7754Z" fill="#EBEBEB"/>
<path d="M169.52 28.2166C169.52 28.2166 166.162 26.3555 162.868 34.302C159.574 42.2484 158.445 46.767 158.445 46.767C158.445 46.767 157.54 48.4463 156.358 47.4898C155.177 46.529 153.437 43.681 151.61 44.3606C149.715 45.066 149.247 47.282 149.866 50.4286C150.485 53.5795 151.589 60.5262 151.688 61.1581C151.784 61.777 151.502 62.7162 150.589 62.1925C149.68 61.6688 144.279 56.527 141.993 59.2364C139.708 61.9458 142.876 70.4333 143.205 71.3681C143.534 72.303 143.378 72.7272 142.945 72.9955C142.513 73.2682 140.859 71.3681 139.262 69.9701C137.665 68.5722 135.57 67.2304 134.384 68.9011C133.199 70.5761 133.289 77.1246 140.323 87.2221L143.889 91.6888L149.576 90.9227C161.652 88.5422 166.265 83.8938 166.573 81.8639C166.88 79.834 164.439 79.3449 162.323 79.2454C160.202 79.1458 157.696 79.3622 157.57 78.8645C157.445 78.3667 157.627 77.9556 158.514 77.5098C159.401 77.064 167.573 73.1557 167.811 69.6196C168.049 66.0835 160.591 66.0315 159.574 65.7762C158.557 65.5208 159.007 64.6465 159.505 64.27C160.011 63.8848 165.634 59.6519 168.265 57.8167C170.897 55.9816 172.1 54.0642 171.226 52.2378C170.386 50.4805 167.153 51.3202 165.638 51.1904C164.123 51.0605 164.638 49.2254 164.638 49.2254C164.638 49.2254 166.967 45.1872 170.113 37.1845C173.26 29.1818 169.455 28.182 169.455 28.182" fill="#EBEBEB"/>
<path d="M144.084 90.5071C146.417 84.6382 149.71 76.5575 153.376 67.6416C157.042 58.7299 160.353 50.658 162.721 44.802C163.898 41.8805 164.854 39.513 165.517 37.864C165.846 37.0503 166.101 36.4184 166.278 35.9769C166.365 35.7692 166.434 35.6047 166.482 35.4878C166.529 35.3796 166.555 35.3234 166.555 35.3234C166.555 35.3234 166.538 35.384 166.499 35.4965C166.456 35.6177 166.395 35.7821 166.313 35.9942C166.144 36.4357 165.898 37.0763 165.586 37.8943C164.95 39.5433 164.015 41.9194 162.846 44.8539C160.513 50.7229 157.22 58.8035 153.554 67.7152C149.888 76.6311 146.572 84.7031 144.209 90.5591" fill="#E0E0E0"/>
<path d="M153.887 48.4463C153.9 48.4419 153.961 48.5761 154.064 48.8185C154.168 49.0652 154.307 49.4201 154.471 49.8659C154.8 50.7575 155.229 51.9953 155.67 53.376C156.099 54.7351 156.488 55.9599 156.787 56.9078C156.921 57.3276 157.038 57.6825 157.129 57.9768C157.211 58.2279 157.25 58.3707 157.237 58.375C157.224 58.3793 157.159 58.2452 157.055 58.0028C156.951 57.7561 156.813 57.3969 156.653 56.9511C156.328 56.0595 155.921 54.813 155.48 53.4323C155.043 52.0776 154.644 50.857 154.337 49.9092C154.199 49.4893 154.082 49.1344 153.987 48.8401C153.913 48.5934 153.874 48.4506 153.887 48.4463Z" fill="#E0E0E0"/>
<path d="M157.774 58.4399C157.756 58.388 160.275 57.3968 163.4 56.2282C166.53 55.0553 169.079 54.1507 169.096 54.1983C169.113 54.2503 166.595 55.2414 163.47 56.41C160.34 57.5829 157.791 58.4918 157.774 58.4399Z" fill="#E0E0E0"/>
<path d="M151.524 71.8746C151.524 71.8616 151.671 71.8399 151.944 71.8183C152.255 71.7923 152.636 71.7664 153.086 71.7317C154.052 71.6582 155.385 71.5456 156.848 71.3768C158.315 71.208 159.635 71.0089 160.591 70.8574C161.037 70.7882 161.414 70.7276 161.725 70.68C161.994 70.641 162.141 70.6237 162.145 70.6367C162.15 70.6497 162.002 70.693 161.738 70.7536C161.474 70.8142 161.089 70.9007 160.613 70.9916C159.661 71.1777 158.336 71.3985 156.869 71.5673C155.398 71.7404 154.06 71.827 153.091 71.8659C152.606 71.8832 152.212 71.8962 151.944 71.8919C151.675 71.8919 151.524 71.8875 151.524 71.8746Z" fill="#E0E0E0"/>
<path d="M146.018 63.6078C146.031 63.5991 146.118 63.7073 146.269 63.9064C146.421 64.1055 146.633 64.3998 146.893 64.7634C147.412 65.4905 148.122 66.5076 148.892 67.633C149.663 68.7583 150.355 69.7884 150.844 70.5371C151.091 70.9093 151.286 71.2166 151.416 71.4287C151.545 71.6408 151.615 71.762 151.602 71.7707C151.589 71.7793 151.502 71.6711 151.351 71.472C151.199 71.2729 150.987 70.9786 150.727 70.615C150.208 69.8879 149.498 68.8708 148.728 67.7455C147.957 66.6202 147.265 65.5944 146.776 64.8456C146.529 64.4734 146.334 64.1661 146.204 63.954C146.075 63.7376 146.01 63.6164 146.018 63.6078Z" fill="#E0E0E0"/>
<path d="M138.998 74.7658C139.011 74.7571 139.119 74.8956 139.314 75.151C139.526 75.441 139.794 75.8088 140.119 76.246C140.79 77.1765 141.707 78.4706 142.712 79.9033C143.716 81.3402 144.612 82.643 145.257 83.5952C145.56 84.0496 145.811 84.4262 146.01 84.7248C146.183 84.9932 146.274 85.149 146.265 85.1533C146.252 85.162 146.144 85.0235 145.949 84.7681C145.737 84.4781 145.469 84.1102 145.144 83.6731C144.473 82.7425 143.556 81.4484 142.551 80.0158C141.547 78.5832 140.651 77.2761 140.007 76.3239C139.704 75.8694 139.453 75.4929 139.253 75.1943C139.076 74.9259 138.985 74.7744 138.998 74.7658Z" fill="#E0E0E0"/>
<path d="M146.157 84.8632C146.157 84.8502 146.343 84.8199 146.685 84.781C147.062 84.7377 147.551 84.6814 148.131 84.6165C149.351 84.478 151.035 84.2789 152.892 84.0105C154.748 83.7422 156.419 83.4609 157.627 83.2445C158.202 83.1449 158.683 83.0584 159.059 82.9934C159.397 82.9372 159.587 82.9112 159.592 82.9242C159.596 82.9372 159.41 82.9891 159.076 83.067C158.743 83.1492 158.258 83.2574 157.653 83.3786C156.449 83.6253 154.774 83.9326 152.918 84.201C151.061 84.4693 149.368 84.6468 148.144 84.7507C147.529 84.8026 147.036 84.8372 146.689 84.8545C146.347 84.8718 146.157 84.8762 146.157 84.8632Z" fill="#E0E0E0"/>
<path d="M295.495 101.366C295.495 92.0046 287.034 84.6165 277.338 86.4343C271.24 87.577 266.384 92.5586 265.315 98.67C264.648 102.492 265.436 106.084 267.176 109.049H267.167L267.211 109.105C267.795 110.088 268.526 110.789 269.262 111.823L278.092 123.518C279.191 124.972 281.377 124.972 282.476 123.518L291.158 112.014C291.158 112.014 292.777 110.079 293.366 109.088L293.396 109.045H293.392C294.725 106.794 295.495 104.171 295.495 101.366ZM280.29 107.988C276.594 107.988 273.599 104.993 273.599 101.297C273.599 97.6009 276.594 94.6059 280.29 94.6059C283.986 94.6059 286.982 97.6009 286.982 101.297C286.982 104.989 283.986 107.988 280.29 107.988Z" fill="#F5F5F5"/>
<path d="M223.696 33.7479V51.6317C223.696 52.0169 224.007 52.3286 224.393 52.3286H261.892C262.281 52.3286 262.593 52.0126 262.588 51.6231L262.502 45.0746C262.502 44.9274 262.45 44.7846 262.363 44.6678L256.984 37.4787C256.854 37.3056 256.65 37.2017 256.429 37.1974L250.232 37.1498C249.851 37.1454 249.539 36.8338 249.539 36.4529V33.7479C249.539 33.3627 249.227 33.051 248.842 33.051H224.388C224.007 33.051 223.696 33.3627 223.696 33.7479Z" fill="#F5F5F5"/>
<path d="M251.288 38.7079V44.447C251.288 44.6721 251.469 44.8495 251.694 44.8452L259.974 44.698C260.29 44.6937 260.476 44.3388 260.299 44.0748L256.429 38.366C256.351 38.2534 256.226 38.1885 256.087 38.1928L251.681 38.3097C251.461 38.314 251.288 38.4915 251.288 38.7079Z" fill="#EBEBEB"/>
<path d="M263.333 52.8739H222.938V54.1204H263.333V52.8739Z" fill="#F5F5F5"/>
<path d="M235.126 56.1754C236.686 54.6153 236.686 52.0859 235.126 50.5258C233.566 48.9657 231.037 48.9657 229.477 50.5258C227.917 52.0859 227.917 54.6153 229.477 56.1754C231.037 57.7354 233.566 57.7354 235.126 56.1754Z" fill="#EBEBEB"/>
<path d="M234.654 53.3501C234.654 54.6485 233.603 55.7002 232.304 55.7002C231.006 55.7002 229.954 54.6485 229.954 53.3501C229.954 52.0516 231.006 50.9999 232.304 50.9999C233.603 50.9999 234.654 52.0516 234.654 53.3501Z" fill="#FAFAFA"/>
<path d="M249.513 52.3286C249.414 52.3286 249.331 48.0134 249.331 42.6898C249.331 37.3662 249.414 33.051 249.513 33.051C249.613 33.051 249.695 37.3662 249.695 42.6898C249.695 48.0134 249.613 52.3286 249.513 52.3286Z" fill="#EBEBEB"/>
<path d="M256.897 56.1773C258.458 54.6172 258.458 52.0878 256.897 50.5278C255.337 48.9677 252.808 48.9677 251.248 50.5278C249.688 52.0878 249.688 54.6172 251.248 56.1773C252.808 57.7374 255.337 57.7374 256.897 56.1773Z" fill="#EBEBEB"/>
<path d="M256.43 53.3501C256.43 54.6485 255.378 55.7002 254.079 55.7002C252.781 55.7002 251.729 54.6485 251.729 53.3501C251.729 52.0516 252.781 50.9999 254.079 50.9999C255.374 50.9999 256.43 52.0516 256.43 53.3501Z" fill="#FAFAFA"/>
<path d="M254.088 45.9791C254.088 46.0787 253.516 46.1609 252.811 46.1609C252.105 46.1609 251.534 46.0787 251.534 45.9791C251.534 45.8796 252.105 45.7974 252.811 45.7974C253.512 45.7974 254.088 45.8796 254.088 45.9791Z" fill="#EBEBEB"/>
<path d="M303 179.333C303 179.394 235.165 179.446 151.506 179.446C67.8219 179.446 0 179.398 0 179.333C0 179.273 67.8219 179.221 151.506 179.221C235.165 179.221 303 179.273 303 179.333Z" fill="black"/>
<path d="M60.5074 177.429C66.3374 173.387 67.6834 165.847 67.48 159.065C67.4454 157.931 67.5752 156.741 67.0385 155.745C66.5018 154.75 65.251 154.066 64.2339 154.542C63.3899 154.936 63.022 155.91 62.5502 156.719C61.9227 157.792 60.9834 158.68 59.8884 159.247C59.1656 159.619 58.274 159.844 57.5642 159.45C56.5904 158.909 56.4779 157.559 56.4908 156.433C56.5125 154.334 56.5298 152.235 56.5514 150.14C56.5644 149.015 56.5687 147.864 56.2225 146.795C55.8762 145.726 55.1058 144.73 54.0368 144.427C52.9677 144.124 51.639 144.734 51.4096 145.838C51.3144 146.297 51.4053 146.773 51.3707 147.24C51.336 147.708 51.1196 148.223 50.6738 148.353C50.2237 148.483 49.7736 148.162 49.4403 147.833C48.2804 146.691 47.497 145.224 46.7655 143.765C46.0341 142.306 45.3242 140.813 44.2725 139.571C43.2208 138.329 41.7665 137.338 40.1564 137.242C38.542 137.147 36.8238 138.134 36.4083 139.718C35.9928 141.302 36.9147 142.917 37.9188 144.206C39.4077 146.119 41.1692 147.812 43.1342 149.214C43.4891 149.465 43.87 149.742 44.0042 150.158C44.2465 150.911 43.5324 151.651 42.7923 151.897C41.9526 152.174 41.0437 152.084 40.1651 152.183C39.2865 152.283 38.3343 152.668 38.001 153.495C37.5379 154.642 38.4944 155.853 39.438 156.645C41.3294 158.234 43.4891 159.493 45.796 160.346C46.6227 160.653 47.4926 160.922 48.1592 161.506C48.8257 162.09 49.2239 163.103 48.8171 163.895C48.4102 164.687 47.3758 164.938 46.5058 164.774C45.6402 164.609 44.8655 164.137 44.0388 163.822C42.4936 163.233 40.494 163.332 39.4986 164.665C38.845 165.544 38.7844 166.765 39.109 167.816C39.4336 168.864 40.1002 169.768 40.8057 170.604C43.277 173.521 46.4409 175.875 50.0289 177.131C53.6126 178.373 56.9366 178.719 60.5074 177.429Z" fill="#054F31"/>
<path d="M60.122 179.338C59.884 176.65 59.7628 176.594 58.7717 173.17C57.7848 169.742 56.3912 166.081 54.8071 162.294C54.4046 161.35 54.0107 160.415 53.6212 159.498C53.2316 158.58 52.8421 157.671 52.405 156.806C51.5437 155.07 50.5828 153.464 49.622 151.971C48.6611 150.478 47.696 149.093 46.787 147.807C45.8738 146.522 44.9952 145.34 44.1512 144.297C42.4676 142.202 40.9181 140.679 39.8058 139.675C39.2518 139.173 38.8103 138.796 38.5073 138.541C38.3602 138.42 38.2476 138.329 38.1611 138.255C38.0832 138.195 38.0399 138.16 38.0399 138.164C38.0355 138.169 38.0745 138.203 38.1481 138.273C38.2303 138.346 38.3428 138.446 38.4813 138.571C38.7757 138.831 39.2085 139.22 39.7538 139.731C40.8445 140.753 42.3767 142.289 44.0387 144.388C44.874 145.436 45.7396 146.617 46.6442 147.907C47.5488 149.197 48.5096 150.582 49.4618 152.075C50.414 153.568 51.3662 155.17 52.2232 156.896C52.656 157.758 53.0369 158.662 53.4307 159.58C53.8203 160.497 54.2141 161.432 54.6166 162.376C56.2051 166.159 57.5987 169.812 58.5899 173.222C59.5897 176.633 59.7239 176.672 59.9749 179.347" fill="black"/>
<path d="M52.3445 156.797C52.3575 156.801 52.3965 156.628 52.4571 156.317C52.5177 156.005 52.5912 155.555 52.6691 154.992C52.8336 153.871 53.0067 152.317 53.1885 150.603C53.3703 148.889 53.5651 147.34 53.7469 146.223C53.8334 145.665 53.9113 145.215 53.9676 144.903C54.0239 144.592 54.0455 144.418 54.0325 144.414C54.0195 144.41 53.9676 144.579 53.8897 144.886C53.8074 145.193 53.7122 145.639 53.604 146.197C53.3876 147.31 53.1669 148.863 52.9851 150.577C52.8076 152.27 52.6475 153.802 52.5263 154.97C52.4657 155.498 52.4181 155.944 52.3792 156.304C52.3445 156.619 52.3316 156.797 52.3445 156.797Z" fill="black"/>
<path d="M37.8799 154.04C37.8799 154.053 38.0833 154.079 38.4555 154.109C38.8277 154.144 39.3644 154.191 40.0266 154.269C41.3511 154.416 43.1775 154.685 45.1728 155.07C47.1724 155.46 48.9642 155.884 50.254 156.234C50.8989 156.403 51.4183 156.555 51.7775 156.654C52.1368 156.758 52.3359 156.81 52.3402 156.793C52.3445 156.78 52.1541 156.702 51.7992 156.576C51.4486 156.451 50.9336 156.278 50.2887 156.091C49.0075 155.706 47.2113 155.256 45.2074 154.867C43.2035 154.481 41.3684 154.235 40.0353 154.126C39.3688 154.066 38.8277 154.04 38.4555 154.031C38.0876 154.023 37.8799 154.027 37.8799 154.04Z" fill="black"/>
<path d="M58.5943 172.906C58.603 172.911 58.6332 172.85 58.6938 172.729C58.7631 172.586 58.8453 172.413 58.9449 172.205C59.1613 171.751 59.4513 171.084 59.8062 170.257C60.5117 168.6 61.4119 166.284 62.3684 163.713C63.3293 161.142 64.2079 158.818 64.8744 157.152C65.2034 156.342 65.4717 155.676 65.6708 155.178C65.7574 154.962 65.8266 154.784 65.8829 154.642C65.9305 154.516 65.9521 154.451 65.9435 154.447C65.9348 154.442 65.9045 154.503 65.8439 154.624C65.7747 154.767 65.6924 154.936 65.5929 155.148C65.3765 155.602 65.0865 156.269 64.7316 157.096C64.0261 158.753 63.1259 161.069 62.165 163.64C61.2042 166.211 60.3255 168.535 59.659 170.201C59.3301 171.011 59.0617 171.677 58.8626 172.175C58.7761 172.391 58.7068 172.569 58.6506 172.711C58.6116 172.837 58.59 172.902 58.5943 172.906Z" fill="black"/>
<path d="M39.3816 166.639C39.3816 166.648 39.4465 166.674 39.572 166.717C39.7235 166.769 39.9053 166.83 40.1304 166.907C40.6454 167.076 41.3422 167.306 42.1862 167.583C43.9218 168.154 46.3153 168.968 48.9554 169.872C51.5956 170.777 53.9977 171.569 55.7463 172.106C56.6206 172.374 57.3304 172.582 57.8238 172.716C58.0532 172.776 58.2393 172.828 58.3951 172.867C58.5249 172.898 58.5942 172.915 58.5985 172.906C58.5985 172.898 58.5336 172.872 58.4081 172.828C58.2566 172.776 58.0748 172.716 57.8498 172.638C57.3347 172.469 56.6379 172.24 55.7939 171.963C54.0583 171.391 51.6648 170.578 49.0247 169.673C46.3845 168.769 43.9867 167.976 42.2338 167.44C41.3596 167.171 40.6497 166.964 40.1563 166.83C39.9269 166.769 39.7408 166.717 39.585 166.678C39.4508 166.643 39.3816 166.63 39.3816 166.639Z" fill="black"/>
<path d="M130.788 179.334H70.5529C63.2729 179.299 57.1226 173.092 57.1529 165.817L57.7935 14.1112C57.8238 6.8269 63.7534 0.949292 71.0376 0.983917L131.549 1.26525C138.829 1.29987 144.703 7.22509 144.668 14.5007L144.027 166.206C143.997 173.491 138.067 179.368 130.788 179.334Z" fill="black"/>
<path d="M131.463 7.02989L119.729 6.97796C118.158 6.9693 116.873 8.29804 116.868 9.94273L116.86 12.0678C116.851 13.7125 115.57 15.0413 113.999 15.0326L91.1289 14.9287C89.5578 14.9201 88.2853 13.5827 88.294 11.938L88.3026 9.80856C88.3113 8.16387 87.0388 6.82214 85.4677 6.81781L81.343 6.8005L71.0723 6.75289C65.9738 6.73125 61.8187 10.8473 61.7971 15.9459L61.1695 164.024C61.1479 169.123 65.2596 173.274 70.3582 173.295L130.749 173.572C135.847 173.594 140.002 169.478 140.024 164.379L140.651 16.3008C140.673 11.2022 136.561 7.05153 131.463 7.02989Z" fill="#F5F5F5"/>
<path d="M105.832 145.587C105.762 147.374 105.697 149.054 105.641 150.447H114.315L113.254 145.12L105.832 145.587Z" fill="#F5F5F5"/>
<path d="M70.5789 147.816L70.6524 150.443H104.78C104.836 148.967 104.901 147.327 104.966 145.639L70.5789 147.816Z" fill="#F5F5F5"/>
<path d="M113.691 145.089L114.76 150.447H130.753L130.562 144.025L113.691 145.089Z" fill="#F5F5F5"/>
<path d="M106.701 70.2168L109.722 52.6835L101.802 52.0948V70.2168H106.701Z" fill="#F5F5F5"/>
<path d="M69.8648 138.082L61.2691 141.449L61.2432 147.539L70.1202 146.976L69.8648 138.082Z" fill="#F5F5F5"/>
<path d="M69.8258 136.714L69.3541 120.384H69.3497V114.623L61.3773 115.467L61.2734 140.056L69.8215 136.706L69.8258 136.714Z" fill="#F5F5F5"/>
<path d="M69.3497 101.769L61.4379 100.726L61.3816 114.165L69.3497 113.321V101.769Z" fill="#F5F5F5"/>
<path d="M128.29 114.866L127.957 119.549L118.617 120.553L119.34 124.258L129.944 123.457L129.784 118.147L130.632 114.632L128.29 114.866Z" fill="#F5F5F5"/>
<path d="M111.458 124.851L118.907 124.292L117.284 115.978L110.783 116.636L111.458 124.851Z" fill="#F5F5F5"/>
<path d="M111.527 125.717L112.099 132.646L113.107 142.15L113.523 144.232L130.537 143.159L129.97 124.323L111.527 125.717Z" fill="#F5F5F5"/>
<path d="M82.2475 92.9914L82.901 94.1123L69.7825 101.764V119.917L83.6282 118.939L110.315 116.246L109.337 104.348L83.8403 101.016L84.0091 99.7303L109.229 103.024L107.576 82.8852L82.6154 85.2873L82.5332 84.426L107.507 82.0239L106.645 71.5151H82.6327L61.546 75.3542L61.4421 99.4186L69.4276 100.47L82.2475 92.9914ZM71.1242 118.185C71.1242 118.185 71.2237 103.219 71.1242 102.656L81.832 96.9603L83.2213 117.419L71.1242 118.185Z" fill="#F5F5F5"/>
<path d="M127.416 114.957L117.717 115.935L118.452 119.7L127.148 118.765L127.416 114.957Z" fill="#F5F5F5"/>
<path d="M105.957 142.38C105.927 143.168 105.897 143.947 105.866 144.717L113.086 144.258L112.713 142.397L105.957 142.38Z" fill="#F5F5F5"/>
<path d="M90.406 70.2168L91.6785 64.4517H101.369V52.0645L71.0635 49.8182V61.4479L61.5979 63.5904L61.5503 74.0298L82.5158 70.2168H90.406Z" fill="#F5F5F5"/>
<path d="M110.627 35.7519L110.368 34.6915L121.941 30.1123L114.414 15.0028C114.28 15.0244 114.142 15.0374 113.999 15.0374L101.209 14.9768L101.555 36.1241L110.627 35.7519Z" fill="#F5F5F5"/>
<path d="M128.169 27.6452L128.156 7.01299L119.734 6.97404C118.162 6.96538 116.877 8.29412 116.873 9.93882L116.86 12.0683C116.855 13.0854 116.366 13.977 115.622 14.5093L123.153 29.6318L128.169 27.6452Z" fill="#F5F5F5"/>
<path d="M84.6627 28.5325L83.6888 6.80956L81.343 6.79658L72.189 6.7533L68.2893 26.1823L84.6627 28.5325ZM82.5722 9.00826L82.8838 26.7017L70.7174 24.9228L73.3835 9.01258L82.5722 9.00826Z" fill="#F5F5F5"/>
<path d="M85.1041 28.5973L85.1085 28.7834C85.1301 30.4801 85.1647 33.5314 85.1907 36.7948L101.131 36.1456L100.785 14.9767L91.1376 14.9334C89.5665 14.9247 88.294 13.5873 88.3026 11.9426L88.3113 9.81319C88.3199 8.16849 87.0475 6.82677 85.4764 6.82244L84.126 6.81812L85.1041 28.6016V28.5973Z" fill="#F5F5F5"/>
<path d="M66.9994 25.9961L70.8601 6.75757C65.8568 6.84846 61.8186 10.9126 61.797 15.9419L61.7581 25.533L61.797 25.2517L66.9994 25.9961Z" fill="#F5F5F5"/>
<path d="M69.7652 49.7229L61.6586 49.1213L61.6023 62.2572L69.7652 60.4091V49.7229Z" fill="#F5F5F5"/>
<path d="M66.9129 26.4203L61.7581 25.6802L61.6672 46.953L62.7752 47.0352L66.9129 26.4203Z" fill="#F5F5F5"/>
<path d="M83.2907 136.468L83.4248 119.389L69.7869 120.354L70.2673 137.082L83.2907 136.468Z" fill="#F5F5F5"/>
<path d="M85.7966 132.525L105.113 141.778C105.343 135.732 105.55 130.079 105.529 129.716L105.948 129.694L106.152 129.287C106.425 129.426 106.425 129.426 106.282 133.546C106.199 135.844 106.087 138.904 105.97 141.969H112.648L111.666 132.685L110.35 116.675L85.1128 119.22L85.7966 132.525Z" fill="#F5F5F5"/>
<path d="M133.142 104.184L132.926 101.929L109.774 104.34L110.748 116.203L130.736 114.186L133.142 104.184Z" fill="#F5F5F5"/>
<path d="M101.369 65.7501H92.7217L91.7349 70.2168H101.369V65.7501Z" fill="#F5F5F5"/>
<path d="M129.567 67.2563L107.905 65.7588L107.022 70.8746L107.935 81.9806L130.779 79.782L129.567 67.2563ZM108.705 70.866L109.87 67.6372L128.684 68.8274L129.775 78.068L109.346 80.4918L108.705 70.866Z" fill="#F5F5F5"/>
<path d="M131.813 90.4681L130.865 80.6476L108.009 82.842L108.866 93.2987L131.813 90.4681Z" fill="#F5F5F5"/>
<path d="M70.1459 147.846L61.2776 148.405L61.2386 147.829L61.23 150.447H70.2195L70.1459 147.846Z" fill="#F5F5F5"/>
<path d="M140.496 22.7674L140.625 23.0963L140.656 16.2968C140.677 11.1983 136.566 7.05189 131.467 7.02592L128.589 7.01294L128.602 27.4721L140.496 22.7674Z" fill="#F5F5F5"/>
<path d="M105.096 142.25L85.3811 132.806L84.6843 119.272L83.8576 119.354L83.7191 136.879L70.2803 137.515L70.2933 137.904L70.2976 137.913H70.2933L70.5529 146.95L105.001 144.773C105.031 143.934 105.061 143.09 105.096 142.25ZM71.1243 138.632L89.9343 137.312L102.17 142.99L71.1243 144.669V138.632Z" fill="#F5F5F5"/>
<path d="M134.891 45.4944L135.696 40.7118C128.623 38.1885 128.134 30.8177 128.156 28.5844L123.542 30.4108L130.493 44.3604L134.891 45.4944Z" fill="#F5F5F5"/>
<path d="M109.666 103.046L119.279 102.046L117.383 93.5541L108.974 94.5928L109.666 103.046Z" fill="#F5F5F5"/>
<path d="M129.602 52.8263H111.649L110.16 52.7137L108.13 64.4733L129.442 65.9449L128.948 60.8333L131.043 53.2851L129.602 52.8263Z" fill="#F5F5F5"/>
<path d="M129.165 50.6623L129.39 45.0487L122.335 30.8827L111.393 35.2108L115.154 50.658H129.165V50.6623ZM121.906 32.6096L128.373 44.9102L127.438 48.7449L116.375 48.3294L113.609 36.6954L121.906 32.6096Z" fill="#F5F5F5"/>
<path d="M131.956 118.372L132.285 129.395L140.067 128.958L140.089 129.391L132.298 129.828L132.696 143.02L140.05 142.553L140.106 143.419L132.722 143.886L132.917 150.447H140.084L140.24 113.663L132.913 114.403L131.956 118.372Z" fill="#F5F5F5"/>
<path d="M84.6756 28.9696L68.2027 26.6064L64.0823 47.1305L84.7448 48.6626C84.8314 45.5031 84.7578 35.8081 84.6756 28.9696Z" fill="#F5F5F5"/>
<path d="M111.77 50.6622H114.258L110.731 36.1803L101.564 36.5568L101.785 49.9265L111.77 50.6622Z" fill="#F5F5F5"/>
<path d="M61.1868 160.982L61.1738 164.021C61.1738 164.116 61.1825 164.207 61.1868 164.298V160.982Z" fill="#F5F5F5"/>
<path d="M85.1689 48.6929L101.352 49.8918L101.131 36.5741L85.1863 37.2276C85.2209 41.7289 85.2382 46.5331 85.1689 48.6929Z" fill="#F5F5F5"/>
<path d="M131.939 91.7622L117.816 93.5021L119.712 101.998L132.8 100.639L131.939 91.7622Z" fill="#F5F5F5"/>
<path d="M135.769 40.2746L136.674 34.9078L140.574 35.2107L140.621 23.6503L128.593 28.4112C128.351 36.5438 133.462 39.4047 135.769 40.2746Z" fill="#F5F5F5"/>
<path d="M131.138 61.0281L131.632 66.0964L140.439 66.7067L140.483 56.2629L133.107 53.9343L131.138 61.0281Z" fill="#F5F5F5"/>
<path d="M135.332 104.335L133.017 113.957L140.24 113.23L140.284 103.141C138.068 102.557 136.133 102.08 135.09 101.881L135.332 104.335Z" fill="#F5F5F5"/>
<path d="M130.454 50.8267L140.496 53.9992L140.517 48.2904L130.658 45.7411L130.454 50.8267Z" fill="#F5F5F5"/>
<path d="M134.964 100.557C135.774 100.678 137.306 101.003 140.288 101.79L140.383 79.7343L133.017 80.4441L134.964 100.557Z" fill="#F5F5F5"/>
<path d="M132.934 79.5784L140.387 78.86L140.435 68.0093L131.757 67.4077L132.934 79.5784Z" fill="#F5F5F5"/>
<path d="M136.6 40.5517C138.011 40.9801 139.327 41.3134 140.543 41.5558L140.565 36.0807L137.392 35.834L136.6 40.5517Z" fill="#F5F5F5"/>
<path d="M135.73 45.7108L140.522 46.9487L140.543 41.9973C139.306 41.7506 137.968 41.413 136.527 40.9758L135.73 45.7108Z" fill="#F5F5F5"/>
<path d="M70.146 147.846L70.2196 150.447H70.6524L70.5788 147.82L104.966 145.643C104.901 147.331 104.836 148.972 104.78 150.447H105.645C105.702 149.054 105.767 147.374 105.836 145.587L113.259 145.12L114.319 150.447H114.76L113.691 145.089L130.558 144.02L130.753 150.443H132.917L132.718 143.882L140.102 143.414L140.045 142.549L132.692 143.012L132.294 129.82L140.084 129.382L140.058 128.95L132.281 129.387L131.952 118.363L132.908 114.39L140.24 113.65V113.212L133.017 113.94L135.332 104.318L135.094 101.86C136.133 102.059 138.067 102.535 140.288 103.119L140.292 101.769C137.31 100.985 135.778 100.661 134.968 100.535L133.021 80.4182L140.387 79.7084L140.392 78.8384L132.939 79.5569L131.761 67.3862L140.439 67.9878L140.444 66.685L131.632 66.0747L131.142 61.0021L133.112 53.9127L140.487 56.2412L140.496 53.9733L130.459 50.8051L130.662 45.7195L140.521 48.2688L140.526 46.9314L135.735 45.6935L136.531 40.9629C137.968 41.4 139.305 41.7376 140.547 41.9843V41.5385C139.331 41.2961 138.016 40.9629 136.605 40.5344L137.401 35.8167L140.573 36.0634L140.578 35.1935L136.678 34.8905L135.774 40.2574C133.467 39.3874 128.355 36.5265 128.597 28.3896L140.625 23.6287L140.63 23.079L140.5 22.7501L128.606 27.4548L128.593 6.99564H128.16L128.173 27.6279L123.161 29.6102L115.63 14.4876C115.275 14.743 114.869 14.9118 114.423 14.9767L121.949 30.0863L110.376 34.6654L110.636 35.7258L101.564 36.098L101.218 14.9508H100.785L101.131 36.1197L85.1906 36.7689C85.1646 33.5055 85.13 30.4541 85.1083 28.7575L85.104 28.5714H85.0997L84.1215 6.78789H83.6887L84.6625 28.5108L68.2892 26.1606L72.1888 6.73162L71.0722 6.72729C71.0029 6.72729 70.9337 6.73595 70.8601 6.73595L66.9994 25.9745L61.797 25.2258L61.758 25.5071V25.6542L66.9172 26.3944L62.7795 47.005L61.6671 46.9227L61.6585 49.0911L69.7651 49.6927V60.3832L61.6022 62.2313L61.5979 63.5644L71.0635 61.422V49.7923L101.369 52.0386V64.4257H91.6785L90.406 70.1908H82.5158L61.5546 74.0039L61.5503 75.324L82.637 71.4849H106.649L107.511 81.9936L82.5374 84.3957L82.6197 85.257L107.58 82.8549L109.233 102.994L84.0133 99.7L83.8445 100.985L109.342 104.318L110.32 116.216L83.6324 118.908L69.7867 119.886V101.734L82.9053 94.0821L82.2518 92.9611L69.4318 100.436L61.4464 99.3841L61.4421 100.691L69.3496 101.734V113.286L61.3858 114.13L61.3815 115.437L69.3539 114.593V120.354H69.3582L69.83 136.684L69.8257 136.675L61.2776 140.025L61.2733 141.423L69.869 138.056L70.1243 146.95L61.2473 147.513V147.803L61.2819 148.379L70.146 147.846ZM105.866 144.717C105.896 143.947 105.927 143.168 105.957 142.38L112.718 142.397L113.09 144.258L105.866 144.717ZM113.523 144.232L113.107 142.15L112.099 132.646L111.527 125.716L129.969 124.327L130.536 143.159L113.523 144.232ZM117.717 115.935L127.416 114.957L127.143 118.765L118.448 119.705L117.717 115.935ZM117.284 115.978L118.907 124.288L111.458 124.851L110.783 116.632L117.284 115.978ZM129.944 123.457L119.34 124.258L118.617 120.553L127.957 119.545L128.29 114.866L130.627 114.628L129.783 118.147L129.944 123.457ZM117.383 93.5541L119.279 102.042L109.666 103.041L108.974 94.5885L117.383 93.5541ZM119.712 101.998L117.816 93.5021L131.939 91.7622L132.8 100.639L119.712 101.998ZM129.441 65.9449L108.13 64.469L110.16 52.7138L111.648 52.8263L129.602 52.8306L131.043 53.2851L128.944 60.8377L129.441 65.9449ZM128.156 28.5801C128.134 30.8134 128.623 38.1842 135.696 40.7075L134.891 45.4901L130.493 44.3518L123.542 30.4022L128.156 28.5801ZM122.33 30.887L129.385 45.053L129.16 50.6666H115.15L111.389 35.2194L122.33 30.887ZM110.731 36.1803L114.258 50.6622H111.765L101.785 49.9221L101.564 36.5525L110.731 36.1803ZM101.131 36.5741L101.352 49.8918L85.1689 48.6929C85.2382 46.5332 85.2209 41.729 85.1906 37.2234L101.131 36.5741ZM68.2026 26.6064L84.6755 28.9696C84.7578 35.8081 84.8313 45.4988 84.7491 48.6583L64.0866 47.1261L68.2026 26.6064ZM109.722 52.6835L106.697 70.2168H101.802V52.0948L109.722 52.6835ZM92.7215 65.7501H101.369V70.2168H91.7347L92.7215 65.7501ZM107.026 70.8746L107.909 65.7588L129.571 67.2563L130.783 79.7863L107.939 81.985L107.026 70.8746ZM130.865 80.6476L131.818 90.4724L108.87 93.2987L108.013 82.8463L130.865 80.6476ZM109.774 104.34L132.926 101.933L133.142 104.184L130.736 114.186L110.744 116.203L109.774 104.34ZM111.666 132.685L112.653 141.964H105.974C106.091 138.904 106.204 135.844 106.286 133.542C106.429 129.421 106.429 129.421 106.156 129.283L105.953 129.69L105.533 129.711C105.55 130.071 105.347 135.727 105.117 141.774L85.8008 132.52L85.117 119.22L110.354 116.675L111.666 132.685ZM83.4247 119.389L83.2905 136.468L70.2715 137.087L69.7911 120.358L83.4247 119.389ZM70.2931 137.913V137.905L70.2801 137.515L83.719 136.879L83.8575 119.354L84.6842 119.272L85.381 132.806L105.096 142.25C105.065 143.09 105.031 143.934 105 144.773L70.5528 146.95L70.2931 137.913Z" fill="white"/>
<path d="M89.9344 137.312L71.1243 138.632V144.669L102.17 142.986L89.9344 137.312Z" fill="#EBEBEB"/>
<path d="M128.68 68.8274L109.866 67.6372L108.706 70.866L109.342 80.4875L129.771 78.0637L128.68 68.8274Z" fill="#EBEBEB"/>
<path d="M70.3624 173.291L130.753 173.568C135.851 173.59 140.006 169.474 140.028 164.375L140.089 150.443H132.917H130.753H114.76H114.319H105.645H104.78H70.6524H70.2196H61.2301L61.1868 160.978V164.293C61.3123 169.266 65.3591 173.265 70.3624 173.291Z" fill="#EBEBEB"/>
<path d="M82.888 26.7016L82.5721 9.00818H73.3834L70.7173 24.9227L82.888 26.7016Z" fill="#EBEBEB"/>
<path d="M127.438 48.7449L128.373 44.9102L121.906 32.6096L113.605 36.6954L116.375 48.3294L127.438 48.7449Z" fill="#EBEBEB"/>
<path d="M71.1243 102.66C71.2238 103.219 71.1243 118.19 71.1243 118.19L83.2171 117.424L81.8278 96.9646L71.1243 102.66Z" fill="#EBEBEB"/>
<path d="M111.458 114.814L110.822 105.539L131.562 102.873V104.474L129.056 113.005L111.458 114.814Z" fill="#EBEBEB"/>
<path d="M96.1151 37.8901C96.1151 39.2837 94.9854 40.4177 93.5874 40.4177C92.1938 40.4177 91.0598 39.288 91.0598 37.8901C91.0598 36.4964 92.1895 35.3624 93.5874 35.3624C94.9854 35.3624 96.1151 36.4964 96.1151 37.8901Z" fill="#FEC54B"/>
<g opacity="0.6">
<path opacity="0.6" d="M96.115 37.7818C96.1755 39.1754 95.0935 40.3527 93.6999 40.4133C92.3062 40.4739 91.1289 39.3918 91.0683 37.9982C91.0077 36.6045 92.0898 35.4273 93.4834 35.3667C94.8771 35.3061 96.0544 36.3881 96.115 37.7818Z" fill="white"/>
</g>
<path d="M93.5917 39.4828C94.5191 39.4828 95.271 38.7309 95.271 37.8035C95.271 36.876 94.5191 36.1241 93.5917 36.1241C92.6642 36.1241 91.9124 36.876 91.9124 37.8035C91.9124 38.7309 92.6642 39.4828 93.5917 39.4828Z" fill="#FEC54B"/>
<path d="M132.64 138.801C132.64 139.398 132.155 139.878 131.562 139.878C130.969 139.878 130.485 139.394 130.485 138.801C130.485 138.203 130.969 137.723 131.562 137.723C132.155 137.723 132.64 138.203 132.64 138.801Z" fill="#FEC54B"/>
<path d="M130.913 138.45L130.654 132.399L112.419 133.286C111.943 133.312 111.467 133.209 111.043 132.992L85.1821 119.93C84.5848 119.627 84.191 119.025 84.1563 118.354L80.6376 50.0824C80.6203 49.7534 80.7458 49.4375 80.9795 49.2081C81.2132 48.9787 81.5378 48.8618 81.8624 48.8835L92.9468 49.7058V37.587H94.2452V49.8703C94.2452 50.1862 94.1111 50.4935 93.8817 50.7056C93.648 50.922 93.3363 51.0302 93.0204 51.0086L81.9447 50.1862L85.4548 118.281C85.4634 118.484 85.5846 118.67 85.7707 118.766L111.631 131.828C111.856 131.94 112.107 131.997 112.363 131.984L130.749 131.088C131.06 131.075 131.35 131.179 131.58 131.386C131.809 131.594 131.939 131.876 131.952 132.187L132.22 138.389L130.913 138.45Z" fill="#FEC54B"/>
<path d="M82.7496 82.9979C84.5567 82.9979 86.0217 81.5329 86.0217 79.7258C86.0217 77.9187 84.5567 76.4537 82.7496 76.4537C80.9425 76.4537 79.4775 77.9187 79.4775 79.7258C79.4775 81.5329 80.9425 82.9979 82.7496 82.9979Z" fill="#FEC54B"/>
<path d="M82.7498 81.998C84.0048 81.998 85.0221 80.9807 85.0221 79.7258C85.0221 78.4708 84.0048 77.4535 82.7498 77.4535C81.4949 77.4535 80.4775 78.4708 80.4775 79.7258C80.4775 80.9807 81.4949 81.998 82.7498 81.998Z" fill="#FAFAFA"/>
<path d="M82.7497 82.1625C81.408 82.1625 80.313 81.0719 80.313 79.7258C80.313 78.3841 81.4037 77.2891 82.7497 77.2891C84.0915 77.2891 85.1865 78.3797 85.1865 79.7258C85.1865 81.0719 84.0915 82.1625 82.7497 82.1625ZM82.7497 77.618C81.5855 77.618 80.6376 78.5659 80.6376 79.7301C80.6376 80.8944 81.5855 81.8423 82.7497 81.8423C83.914 81.8423 84.8619 80.8944 84.8619 79.7301C84.8619 78.5615 83.914 77.618 82.7497 77.618Z" fill="#FEC54B"/>
<path d="M102.027 66.0013H86.4457C85.6883 66.0013 85.0737 66.6159 85.0737 67.3734V73.0173C85.0737 73.7747 85.6883 74.3893 86.4457 74.3893H86.6275V75.7353L88.1857 74.3893H102.027C102.784 74.3893 103.399 73.7747 103.399 73.0173V67.3734C103.399 66.6159 102.784 66.0013 102.027 66.0013Z" fill="#FEC54B"/>
<g opacity="0.4">
<g opacity="0.4">
<path opacity="0.4" d="M102.027 66.0013H86.4457C85.6883 66.0013 85.0737 66.6159 85.0737 67.3734V73.0173C85.0737 73.7747 85.6883 74.3893 86.4457 74.3893H86.6275V75.7353L88.1857 74.3893H102.027C102.784 74.3893 103.399 73.7747 103.399 73.0173V67.3734C103.399 66.6159 102.784 66.0013 102.027 66.0013Z" fill="white"/>
</g>
</g>
<path d="M88.5752 70.104C88.5752 69.5889 88.9734 69.2037 89.5144 69.2037C90.0511 69.2037 90.4493 69.5846 90.4493 70.104C90.4493 70.6234 90.0511 71.0042 89.5144 71.0042C88.9734 71.0042 88.5752 70.619 88.5752 70.104ZM90.1982 70.104C90.1982 69.7145 89.9083 69.4288 89.5144 69.4288C89.1205 69.4288 88.8262 69.7145 88.8262 70.104C88.8262 70.4935 89.1162 70.7792 89.5144 70.7792C89.9039 70.7835 90.1982 70.4935 90.1982 70.104Z" fill="white"/>
<path d="M92.1804 70.3208C92.1804 70.7276 91.8948 71.0046 91.5052 71.0046C91.3105 71.0046 91.1373 70.9311 91.0291 70.7796V70.9916H90.7954V69.1262H91.0378V69.862C91.1503 69.7192 91.3148 69.6499 91.5052 69.6499C91.8948 69.6413 92.1804 69.9096 92.1804 70.3208ZM91.938 70.3208C91.938 70.0351 91.7433 69.8533 91.4879 69.8533C91.2326 69.8533 91.0421 70.0351 91.0421 70.3208C91.0421 70.6064 91.2369 70.7925 91.4879 70.7925C91.7433 70.7882 91.938 70.6021 91.938 70.3208Z" fill="white"/>
<path d="M92.0549 71.4072L92.1328 71.221C92.1804 71.26 92.2497 71.286 92.3276 71.286C92.4575 71.286 92.5267 71.2037 92.5267 71.0522V69.6543H92.7691V71.0479C92.7691 71.3206 92.6176 71.4894 92.3449 71.4894C92.2324 71.4894 92.1242 71.4634 92.0549 71.4072ZM92.4834 69.2388C92.4834 69.1522 92.5527 69.0786 92.6479 69.0786C92.7431 69.0786 92.8124 69.1479 92.8124 69.2301C92.8124 69.321 92.7431 69.3902 92.6479 69.3902C92.557 69.3946 92.4834 69.3296 92.4834 69.2388Z" fill="white"/>
<path d="M94.4311 70.3987H93.3491C93.3794 70.6324 93.5698 70.7882 93.8338 70.7882C93.9896 70.7882 94.1195 70.7363 94.219 70.6281L94.3532 70.7839C94.232 70.9268 94.0502 71.0003 93.8252 71.0003C93.3967 71.0003 93.1067 70.7147 93.1067 70.3165C93.1067 69.9226 93.3923 69.637 93.7776 69.637C94.1628 69.637 94.4354 69.914 94.4354 70.3251C94.4354 70.3468 94.4311 70.3771 94.4311 70.3987ZM93.3491 70.2256H94.206C94.1801 70.0005 94.0113 69.8447 93.7776 69.8447C93.5438 69.8447 93.375 70.0005 93.3491 70.2256Z" fill="white"/>
<path d="M94.6475 70.3209C94.6475 69.9227 94.9418 69.6414 95.3529 69.6414C95.591 69.6414 95.7901 69.7409 95.8983 69.927L95.7165 70.0439C95.6299 69.914 95.5001 69.8534 95.3529 69.8534C95.0933 69.8534 94.8942 70.0352 94.8942 70.3209C94.8942 70.6109 95.0889 70.7926 95.3529 70.7926C95.5001 70.7926 95.6299 70.732 95.7165 70.6022L95.8983 70.7191C95.7944 70.9052 95.5953 71.0047 95.3529 71.0047C94.9418 71.0004 94.6475 70.7191 94.6475 70.3209Z" fill="white"/>
<path d="M96.9717 70.9094C96.8981 70.9743 96.7899 71.0003 96.6817 71.0003C96.4133 71.0003 96.2575 70.8531 96.2575 70.5848V69.8533H96.0325V69.6542H96.2575V69.3643H96.4999V69.6542H96.8808V69.8533H96.4999V70.5761C96.4999 70.719 96.5735 70.8012 96.7077 70.8012C96.7769 70.8012 96.8462 70.7796 96.8981 70.7363L96.9717 70.9094Z" fill="white"/>
<path d="M97.2229 69.2388C97.2229 69.1522 97.2921 69.0786 97.3874 69.0786C97.4783 69.0786 97.5518 69.1479 97.5518 69.2301C97.5518 69.321 97.4826 69.3902 97.3874 69.3902C97.2921 69.3946 97.2229 69.3296 97.2229 69.2388ZM97.2662 69.6543H97.5086V70.9873H97.2662V69.6543Z" fill="white"/>
<path d="M99.1489 69.6543L98.5646 70.9874H98.3179L97.7336 69.6543H97.9847L98.4435 70.7233L98.9109 69.6543H99.1489Z" fill="white"/>
<path d="M100.538 70.3987H99.4562C99.4865 70.6324 99.677 70.7882 99.941 70.7882C100.097 70.7882 100.227 70.7363 100.326 70.6281L100.46 70.7839C100.339 70.9268 100.157 71.0003 99.9323 71.0003C99.5039 71.0003 99.2139 70.7147 99.2139 70.3165C99.2139 69.9226 99.4995 69.637 99.8847 69.637C100.27 69.637 100.543 69.914 100.543 70.3251C100.543 70.3468 100.538 70.3771 100.538 70.3987ZM99.4562 70.2256H100.313C100.287 70.0005 100.118 69.8447 99.8847 69.8447C99.651 69.8447 99.4779 70.0005 99.4562 70.2256Z" fill="white"/>
<path d="M96.8808 29.4026C96.8808 27.4073 95.0803 25.8362 93.0158 26.2214C91.7174 26.4638 90.683 27.5242 90.4536 28.8269C90.3107 29.6406 90.4795 30.4067 90.8517 31.0386L90.8604 31.0516C90.9859 31.2594 91.1417 31.4108 91.2975 31.6316L93.1803 34.1246C93.414 34.4362 93.8814 34.4362 94.1152 34.1246L95.9633 31.6749C95.9633 31.6749 96.3095 31.2637 96.435 31.0516L96.4437 31.0429C96.7164 30.5582 96.8808 29.9999 96.8808 29.4026ZM93.6391 30.8136C92.8513 30.8136 92.2151 30.1773 92.2151 29.3896C92.2151 28.6019 92.8513 27.9656 93.6391 27.9656C94.4268 27.9656 95.063 28.6019 95.063 29.3896C95.063 30.1773 94.4268 30.8136 93.6391 30.8136Z" fill="#FEC54B"/>
<path d="M75.9067 157.026H75.3008V156.805H76.7594V157.026H76.1534V158.567H75.9024V157.026H75.9067Z" fill="black"/>
<path d="M76.7378 157.901C76.7378 157.502 77.0321 157.221 77.4303 157.221C77.8285 157.221 78.1228 157.502 78.1228 157.901C78.1228 158.299 77.8328 158.584 77.4303 158.584C77.0321 158.584 76.7378 158.299 76.7378 157.901ZM77.8804 157.901C77.8804 157.615 77.69 157.433 77.4346 157.433C77.1793 157.433 76.9845 157.615 76.9845 157.901C76.9845 158.186 77.1793 158.372 77.4346 158.372C77.6857 158.372 77.8804 158.186 77.8804 157.901Z" fill="black"/>
<path d="M79.209 158.489C79.1354 158.554 79.0272 158.584 78.919 158.584C78.6507 158.584 78.4948 158.437 78.4948 158.165V157.433H78.2698V157.234H78.4948V156.944H78.7372V157.234H79.1181V157.433H78.7372V158.156C78.7372 158.299 78.8108 158.381 78.945 158.381C79.0142 158.381 79.0835 158.359 79.1354 158.316L79.209 158.489Z" fill="black"/>
<path d="M80.5552 157.762V158.567H80.3258V158.39C80.2436 158.511 80.0964 158.58 79.8887 158.58C79.5857 158.58 79.3953 158.42 79.3953 158.186C79.3953 157.974 79.5338 157.797 79.9319 157.797H80.3128V157.749C80.3128 157.546 80.196 157.429 79.9536 157.429C79.7934 157.429 79.6333 157.485 79.5294 157.572L79.4299 157.39C79.5684 157.277 79.7675 157.217 79.9796 157.217C80.3518 157.221 80.5552 157.399 80.5552 157.762ZM80.3128 158.16V157.974H79.9406C79.7026 157.974 79.6333 158.065 79.6333 158.182C79.6333 158.316 79.7458 158.398 79.9276 158.398C80.1094 158.398 80.2522 158.316 80.3128 158.16Z" fill="black"/>
<path d="M81.0051 156.702H81.2475V158.567H81.0051V156.702Z" fill="black"/>
<path d="M83.6411 156.702V158.567H83.4074V158.355C83.2992 158.506 83.1304 158.58 82.9313 158.58C82.5418 158.58 82.2561 158.307 82.2561 157.896C82.2561 157.489 82.5418 157.217 82.9313 157.217C83.1217 157.217 83.2862 157.286 83.3987 157.429V156.693H83.6411V156.702ZM83.4031 157.901C83.4031 157.615 83.2083 157.433 82.9573 157.433C82.7019 157.433 82.5071 157.615 82.5071 157.901C82.5071 158.186 82.7019 158.372 82.9573 158.372C83.2083 158.372 83.4031 158.186 83.4031 157.901Z" fill="black"/>
<path d="M84.0566 156.823C84.0566 156.736 84.1259 156.663 84.2211 156.663C84.312 156.663 84.3856 156.732 84.3856 156.819C84.3856 156.909 84.3163 156.979 84.2211 156.979C84.1259 156.979 84.0566 156.909 84.0566 156.823ZM84.0999 157.234H84.3423V158.567H84.0999V157.234Z" fill="black"/>
<path d="M84.6321 158.429L84.7316 158.238C84.8442 158.32 85.0259 158.377 85.1991 158.377C85.4241 158.377 85.515 158.307 85.515 158.195C85.515 157.896 84.671 158.156 84.671 157.624C84.671 157.385 84.8831 157.225 85.225 157.225C85.3982 157.225 85.5973 157.269 85.7098 157.347L85.6059 157.537C85.4847 157.459 85.3506 157.433 85.2207 157.433C85.0086 157.433 84.9048 157.511 84.9048 157.615C84.9048 157.931 85.7487 157.671 85.7487 158.191C85.7487 158.433 85.528 158.584 85.1731 158.584C84.961 158.584 84.7446 158.515 84.6321 158.429Z" fill="black"/>
<path d="M86.8137 158.489C86.7401 158.554 86.6319 158.584 86.5237 158.584C86.2554 158.584 86.0996 158.437 86.0996 158.165V157.433H85.8745V157.234H86.0996V156.944H86.342V157.234H86.7228V157.433H86.342V158.156C86.342 158.299 86.4155 158.381 86.5497 158.381C86.619 158.381 86.6882 158.359 86.7401 158.316L86.8137 158.489Z" fill="black"/>
<path d="M88.1597 157.762V158.567H87.9303V158.39C87.8481 158.511 87.7009 158.58 87.4932 158.58C87.1902 158.58 86.9998 158.42 86.9998 158.186C86.9998 157.974 87.1383 157.797 87.5364 157.797H87.9173V157.749C87.9173 157.546 87.8005 157.429 87.5581 157.429C87.3979 157.429 87.2378 157.485 87.1339 157.572L87.0344 157.39C87.1729 157.277 87.372 157.217 87.5841 157.217C87.9519 157.221 88.1597 157.399 88.1597 157.762ZM87.9173 158.16V157.974H87.5451C87.3071 157.974 87.2378 158.065 87.2378 158.182C87.2378 158.316 87.3503 158.398 87.5321 158.398C87.7139 158.398 87.8567 158.316 87.9173 158.16Z" fill="black"/>
<path d="M89.8736 157.801V158.567H89.6312V157.827C89.6312 157.567 89.5014 157.437 89.272 157.437C89.0166 157.437 88.8478 157.589 88.8478 157.879V158.567H88.6055V157.234H88.8392V157.433C88.9387 157.299 89.1075 157.221 89.3196 157.221C89.6442 157.221 89.8736 157.407 89.8736 157.801Z" fill="black"/>
<path d="M90.2068 157.901C90.2068 157.502 90.5011 157.221 90.9123 157.221C91.1503 157.221 91.3494 157.321 91.4576 157.507L91.2758 157.624C91.1893 157.494 91.0594 157.433 90.9123 157.433C90.6526 157.433 90.4535 157.615 90.4535 157.901C90.4535 158.191 90.6483 158.372 90.9123 158.372C91.0594 158.372 91.1893 158.312 91.2758 158.182L91.4576 158.299C91.3537 158.485 91.1547 158.584 90.9123 158.584C90.5011 158.584 90.2068 158.299 90.2068 157.901Z" fill="black"/>
<path d="M92.9465 157.983H91.8644C91.8947 158.217 92.0852 158.372 92.3492 158.372C92.505 158.372 92.6349 158.32 92.7344 158.212L92.8686 158.368C92.7474 158.511 92.5656 158.584 92.3405 158.584C91.9121 158.584 91.6221 158.299 91.6221 157.901C91.6221 157.507 91.9077 157.221 92.2929 157.221C92.6781 157.221 92.9508 157.498 92.9508 157.909C92.9508 157.931 92.9465 157.961 92.9465 157.983ZM91.8644 157.81H92.7214C92.6954 157.585 92.5267 157.429 92.2929 157.429C92.0592 157.424 91.8904 157.58 91.8644 157.81Z" fill="black"/>
<path d="M77.4866 160.545V164.748H76.5128V161.324H75.6731V160.545H77.4866Z" fill="black"/>
<path d="M79.3563 164.207C79.3563 164.362 79.3303 164.475 79.1962 164.808L78.8542 165.674H78.2613L78.5253 164.722C78.3262 164.644 78.2007 164.458 78.2007 164.211C78.2007 163.865 78.4517 163.635 78.785 163.635C79.1139 163.631 79.3563 163.865 79.3563 164.207Z" fill="black"/>
<path d="M81.3169 160.545V164.748H80.3431V161.324H79.5034V160.545H81.3169Z" fill="black"/>
<path d="M82.0483 162.644C82.0483 161.259 82.8187 160.471 83.8488 160.471C84.8876 160.471 85.6493 161.259 85.6493 162.644C85.6493 164.029 84.8876 164.817 83.8488 164.817C82.8187 164.817 82.0483 164.029 82.0483 162.644ZM84.6712 162.644C84.6712 161.688 84.3336 161.294 83.8488 161.294C83.3684 161.294 83.0308 161.692 83.0308 162.644C83.0308 163.601 83.3684 163.995 83.8488 163.995C84.3379 163.995 84.6712 163.601 84.6712 162.644Z" fill="black"/>
<path d="M86.1255 162.644C86.1255 161.259 86.8959 160.471 87.926 160.471C88.9647 160.471 89.7265 161.259 89.7265 162.644C89.7265 164.029 88.9647 164.817 87.926 164.817C86.8959 164.817 86.1255 164.029 86.1255 162.644ZM88.7483 162.644C88.7483 161.688 88.4107 161.294 87.926 161.294C87.4456 161.294 87.108 161.692 87.108 162.644C87.108 163.601 87.4456 163.995 87.926 163.995C88.4151 163.995 88.7483 163.601 88.7483 162.644Z" fill="black"/>
<path d="M97.5561 162.895V164.743H96.6212V163.038C96.6212 162.514 96.3875 162.276 96.0109 162.276C95.5911 162.276 95.2968 162.545 95.2968 163.125V164.748H94.3619V163.042C94.3619 162.519 94.1412 162.281 93.7516 162.281C93.3361 162.281 93.0418 162.549 93.0418 163.129V164.752H92.1069V161.523H93.0029V161.895C93.2409 161.618 93.6045 161.476 94.0156 161.476C94.4658 161.476 94.851 161.649 95.0804 162.004C95.3401 161.675 95.7599 161.476 96.2446 161.476C97.0021 161.467 97.5561 161.913 97.5561 162.895Z" fill="black"/>
<path d="M73.0879 161.044C73.5458 159.096 72.3383 157.146 70.3908 156.688C68.4433 156.23 66.4932 157.438 66.0353 159.385C65.5773 161.333 66.7848 163.283 68.7323 163.741C70.6799 164.199 72.6299 162.991 73.0879 161.044Z" fill="#FEC54B"/>
<path d="M68.1075 160.874C68.1075 160.852 68.4451 160.835 69.0381 160.818C69.631 160.8 70.475 160.787 71.4878 160.779L71.4142 160.939C71.1286 160.61 70.817 160.246 70.488 159.87L70.4274 159.801L70.4837 159.731C70.7737 159.368 71.081 158.987 71.3969 158.589L71.4835 158.77C71.3536 158.77 71.2108 158.77 71.0723 158.77C70.0033 158.766 68.9948 158.762 68.1032 158.757L68.2028 158.658C68.1941 159.757 68.1811 160.684 68.1638 161.333C68.1465 161.982 68.1249 162.358 68.1032 162.358C68.0816 162.358 68.0599 161.982 68.0426 161.333C68.0253 160.684 68.0123 159.757 68.0037 158.658V158.558H68.1075C68.9991 158.554 70.0076 158.55 71.0766 158.545C71.2195 158.545 71.358 158.545 71.4878 158.545H71.7215L71.5744 158.727C71.2541 159.121 70.9468 159.502 70.6525 159.861V159.723C70.9728 160.104 71.2801 160.471 71.5614 160.805L71.6999 160.969H71.4878C70.475 160.961 69.6267 160.948 69.0381 160.93C68.4451 160.917 68.1075 160.896 68.1075 160.874Z" fill="#FAFAFA"/>
<path d="M128.182 154.031H117.228C116.072 154.031 115.133 154.97 115.133 156.126V164.748C115.133 165.903 116.072 166.843 117.228 166.843H117.505V168.898L119.889 166.843H128.182C129.338 166.843 130.277 165.903 130.277 164.748V156.126C130.277 154.97 129.338 154.031 128.182 154.031Z" fill="#FEC54B"/>
<path d="M118.271 157.987V162.41C118.271 162.506 118.349 162.584 118.444 162.584H127.715C127.81 162.584 127.888 162.506 127.888 162.41L127.866 160.792C127.866 160.757 127.853 160.718 127.832 160.692L126.503 158.913C126.473 158.87 126.421 158.844 126.364 158.844L124.832 158.831C124.737 158.831 124.659 158.753 124.659 158.658V157.991C124.659 157.896 124.581 157.818 124.486 157.818H118.44C118.349 157.814 118.271 157.892 118.271 157.987Z" fill="#FAFAFA"/>
<path d="M125.092 159.216V160.636C125.092 160.692 125.135 160.735 125.192 160.735L127.239 160.701C127.317 160.701 127.364 160.61 127.317 160.545L126.36 159.134C126.343 159.108 126.308 159.091 126.274 159.091L125.183 159.121C125.135 159.117 125.092 159.16 125.092 159.216Z" fill="#FEC54B"/>
<path d="M128.07 162.718H118.085V163.025H128.07V162.718Z" fill="#FAFAFA"/>
<path d="M121.387 162.835C121.387 163.38 120.945 163.821 120.4 163.821C119.855 163.821 119.413 163.38 119.413 162.835C119.413 162.289 119.855 161.848 120.4 161.848C120.945 161.848 121.387 162.289 121.387 162.835Z" fill="#FEC54B"/>
<path d="M120.985 162.835C120.985 163.155 120.725 163.415 120.405 163.415C120.084 163.415 119.825 163.155 119.825 162.835C119.825 162.514 120.084 162.255 120.405 162.255C120.721 162.255 120.985 162.514 120.985 162.835Z" fill="#FAFAFA"/>
<path d="M124.655 162.584C124.629 162.584 124.612 161.515 124.612 160.199C124.612 158.883 124.633 157.814 124.655 157.814C124.681 157.814 124.698 158.879 124.698 160.199C124.702 161.515 124.681 162.584 124.655 162.584Z" fill="#FEC54B"/>
<path d="M126.771 162.835C126.771 163.38 126.33 163.821 125.784 163.821C125.239 163.821 124.798 163.38 124.798 162.835C124.798 162.289 125.239 161.848 125.784 161.848C126.33 161.848 126.771 162.289 126.771 162.835Z" fill="#FEC54B"/>
<path d="M126.364 162.835C126.364 163.155 126.105 163.415 125.784 163.415C125.464 163.415 125.204 163.155 125.204 162.835C125.204 162.514 125.464 162.255 125.784 162.255C126.105 162.255 126.364 162.514 126.364 162.835Z" fill="#FAFAFA"/>
<path d="M125.784 161.012C125.784 161.038 125.642 161.056 125.469 161.056C125.295 161.056 125.153 161.034 125.153 161.012C125.153 160.986 125.295 160.969 125.469 160.969C125.646 160.965 125.784 160.986 125.784 161.012Z" fill="#FEC54B"/>
<path d="M229.075 88.4166C229.075 88.4166 236.057 89.5982 236.619 89.7454C237.182 89.8969 239.394 90.9443 239.506 91.6195C239.619 92.2946 239.506 94.2813 239.506 94.2813C239.506 94.2813 239.108 94.6059 238.857 93.9566C238.606 93.3074 238.645 92.022 238.645 92.022L237.407 91.5459L238.082 92.7448L238.195 95.5537C238.195 95.5537 237.329 95.4758 237.165 94.8006C236.996 94.1298 237 93.3767 237 93.3767L236.096 92.6106L236.771 93.5238L237 95.5494C237 95.5494 236.342 95.7615 236.135 95.3114C235.927 94.8612 235.91 93.5238 235.91 93.5238L233.365 92.6366L231.681 93.5758L228.534 91.7969L229.075 88.4166Z" fill="#FFBE9D"/>
<path d="M204.634 71.1604C204.665 71.2989 213.048 82.8377 213.048 82.8377L229.885 88.0748L229.119 94.3982L208.482 90.2432L201.159 81.8379L204.634 71.1604Z" fill="#FEC54B"/>
<g opacity="0.2">
<g opacity="0.2">
<path opacity="0.2" d="M204.634 71.1604C204.665 71.2989 213.048 82.8377 213.048 82.8377L229.885 88.0748L229.119 94.3982L208.482 90.2432L201.159 81.8379L204.634 71.1604Z" fill="black"/>
</g>
</g>
<path d="M175.307 93.7443H140.907C140.18 93.7443 139.587 93.1557 139.587 92.4242V88.3601C139.587 87.633 140.175 87.04 140.907 87.04H175.307C176.034 87.04 176.627 87.6287 176.627 88.3601V92.4242C176.627 93.1557 176.038 93.7443 175.307 93.7443Z" fill="#F5F5F5"/>
<path d="M175.307 93.7447C175.307 93.7361 175.381 93.7404 175.523 93.7144C175.662 93.6841 175.878 93.6278 176.099 93.4504C176.316 93.2816 176.541 92.983 176.584 92.5761C176.601 92.1693 176.584 91.6845 176.584 91.1478C176.58 90.6068 176.58 90.0095 176.575 89.3516C176.575 89.0227 176.571 88.6808 176.571 88.3259C176.562 87.984 176.406 87.6377 176.125 87.3997C175.987 87.2785 175.818 87.1919 175.636 87.1443C175.454 87.0924 175.259 87.101 175.052 87.101C174.641 87.101 174.221 87.1053 173.788 87.1053C172.918 87.1097 172 87.1097 171.039 87.114C163.322 87.1227 152.671 87.1356 140.911 87.1486C140.574 87.1443 140.24 87.2958 140.02 87.5425C139.79 87.7935 139.682 88.1225 139.704 88.473C139.704 89.2002 139.704 89.923 139.704 90.6371C139.704 90.9963 139.704 91.3512 139.704 91.7062V92.2385C139.704 92.4203 139.704 92.5761 139.747 92.7363C139.829 93.0479 140.046 93.3205 140.327 93.4764C140.466 93.5543 140.621 93.6019 140.781 93.6192C140.933 93.6322 141.119 93.6235 141.292 93.6278C144.067 93.6322 146.741 93.6322 149.291 93.6365C154.385 93.6452 158.977 93.6538 162.838 93.6625C166.685 93.6755 169.802 93.6884 171.97 93.6971C173.039 93.7058 173.874 93.7144 174.454 93.7187C174.731 93.7231 174.943 93.7274 175.099 93.7317C175.233 93.736 175.307 93.7447 175.307 93.7447C175.307 93.7447 175.233 93.7534 175.086 93.7577C174.93 93.762 174.718 93.762 174.441 93.7707C173.866 93.775 173.03 93.7837 171.957 93.7923C169.793 93.801 166.672 93.814 162.825 93.8269C158.968 93.8356 154.376 93.8399 149.278 93.8529C146.728 93.8529 144.054 93.8572 141.279 93.8616C141.102 93.8572 140.942 93.8702 140.747 93.8529C140.561 93.8313 140.375 93.775 140.21 93.6841C139.877 93.5023 139.622 93.1777 139.522 92.8098C139.47 92.628 139.47 92.4246 139.47 92.2558V91.7235C139.47 91.3686 139.47 91.0093 139.47 90.6544C139.47 89.9359 139.47 89.2175 139.47 88.4903C139.444 88.1181 139.574 87.694 139.842 87.4083C140.106 87.114 140.504 86.9365 140.903 86.9409C152.662 86.9539 163.314 86.9668 171.031 86.9755C171.996 86.9798 172.914 86.9798 173.779 86.9842C174.212 86.9842 174.636 86.9885 175.043 86.9885C175.242 86.9885 175.459 86.9798 175.658 87.0404C175.857 87.0967 176.043 87.1919 176.194 87.3261C176.502 87.5901 176.67 87.971 176.675 88.3432C176.675 88.6981 176.675 89.04 176.67 89.369C176.666 90.0225 176.662 90.6241 176.662 91.1651C176.653 91.7062 176.666 92.1779 176.64 92.6021C176.584 93.0306 176.346 93.3335 176.116 93.5067C175.883 93.6841 175.662 93.7317 175.519 93.7577C175.385 93.7577 175.307 93.7447 175.307 93.7447Z" fill="black"/>
<path d="M268.706 179.4C278.468 178.93 286.002 170.636 285.533 160.874C285.064 151.111 276.769 143.577 267.007 144.047C257.244 144.516 249.711 152.81 250.18 162.573C250.649 172.335 258.943 179.869 268.706 179.4Z" fill="black"/>
<path d="M250.171 161.437C250.171 161.454 250.166 161.467 250.166 161.484C250.023 171.257 257.831 179.295 267.604 179.433C277.377 179.576 285.415 171.768 285.553 161.995C285.553 161.978 285.553 161.965 285.553 161.947L250.171 161.437Z" fill="black"/>
<path d="M255.442 161.558C255.343 168.418 260.826 174.062 267.687 174.161C274.547 174.261 280.191 168.777 280.29 161.917C280.39 155.057 274.906 149.413 268.046 149.314C261.181 149.218 255.542 154.698 255.442 161.558Z" fill="#FAFAFA"/>
<path d="M268.042 149.314C261.181 149.214 255.538 154.698 255.438 161.558L280.286 161.917C280.385 155.057 274.906 149.413 268.042 149.314Z" fill="#E0E0E0"/>
<path d="M260.298 161.632C260.238 165.813 263.579 169.249 267.756 169.31C271.937 169.37 275.373 166.029 275.434 161.852C275.495 157.671 272.153 154.235 267.977 154.174C263.796 154.109 260.355 157.451 260.298 161.632Z" fill="black"/>
<path d="M259.463 135.788C259.463 135.788 277.581 130.309 285.077 149.993L247.163 161.735L259.463 135.788Z" fill="#FEC54B"/>
<path d="M159.517 179.403C169.279 178.934 176.813 170.64 176.344 160.877C175.874 151.115 167.58 143.581 157.818 144.05C148.055 144.519 140.521 152.814 140.991 162.576C141.46 172.339 149.754 179.872 159.517 179.403Z" fill="black"/>
<path d="M140.98 161.437C140.98 161.454 140.976 161.467 140.976 161.484C140.833 171.257 148.641 179.295 158.414 179.433C168.187 179.576 176.224 171.768 176.363 161.995C176.363 161.978 176.363 161.965 176.363 161.947L140.98 161.437Z" fill="black"/>
<path d="M146.248 161.558C146.148 168.418 151.632 174.062 158.492 174.161C165.352 174.261 170.996 168.777 171.096 161.917C171.195 155.057 165.712 149.413 158.851 149.314C151.987 149.218 146.347 154.698 146.248 161.558Z" fill="#FAFAFA"/>
<path d="M158.851 149.314C151.991 149.214 146.347 154.698 146.248 161.558L171.096 161.917C171.195 155.057 165.711 149.413 158.851 149.314Z" fill="#E0E0E0"/>
<path d="M151.104 161.632C151.043 165.813 154.385 169.249 158.561 169.31C162.742 169.37 166.179 166.029 166.24 161.852C166.3 157.671 162.959 154.235 158.782 154.174C154.601 154.109 151.165 157.451 151.104 161.632Z" fill="black"/>
<path d="M183.842 154.633C183.743 154.685 174.528 153.209 174.528 153.209C173.519 154.525 171.979 155.33 170.325 155.408C166.343 155.598 162.452 155.776 159.081 155.923C155.939 156.061 153.502 158.723 153.632 161.865V161.87C153.757 164.843 156.142 167.219 159.115 167.336L178.713 168.106C181.938 168.232 186.218 166.276 188.231 163.752L183.842 154.633Z" fill="black"/>
<path d="M135.696 146.803C135.696 146.803 134.852 129.556 151.061 125.963V123.752H207.841V129.023C207.841 129.023 199.505 139.06 202.228 147.392C204.95 155.728 205.799 156.576 205.799 156.576H238.112C238.112 156.576 242.025 151.642 242.194 144.332C242.363 137.017 239.324 124.513 237.056 116.519C234.992 109.252 233.689 103.171 233.689 103.171L243.384 99.9382C243.384 99.9382 261.324 123.392 262.056 124.712C262.787 126.033 265.28 129.11 264.692 135.849C264.107 142.592 247.985 163.402 243.735 165.743C239.485 168.089 235.676 168.236 231.863 168.821C228.556 169.331 204.089 168.994 197.692 168.894C195.467 168.86 193.273 168.293 191.373 167.141C189.46 165.981 188.019 164.06 186.43 160.909L183.059 154.313L135.696 146.803Z" fill="#FEC54B"/>
<path d="M140.041 145.604L132.887 156.806C131.969 158.238 133.454 160.043 135.012 159.368C135.769 159.039 136.583 158.528 137.41 157.741C140.682 154.629 146.512 146.431 146.512 146.431L140.041 145.604Z" fill="black"/>
<path d="M191.326 147.621C191.321 147.621 191.334 147.565 191.369 147.457C191.403 147.34 191.451 147.184 191.512 146.985C191.633 146.57 191.78 145.951 191.888 145.137C192.07 143.523 191.988 141.06 190.78 138.376C190.192 137.039 189.322 135.671 188.144 134.416C186.963 133.17 185.504 132.018 183.799 131.101C182.102 130.179 180.181 129.452 178.129 128.989C176.073 128.526 173.887 128.318 171.65 128.318C169.412 128.318 167.231 128.517 165.136 128.794C163.041 129.075 161.033 129.422 159.137 129.854C155.35 130.707 152.056 131.967 149.507 133.416C146.949 134.858 145.136 136.433 144.002 137.615C143.43 138.203 143.019 138.692 142.746 139.03C142.617 139.19 142.517 139.32 142.439 139.415C142.37 139.502 142.331 139.545 142.327 139.541C142.327 139.541 142.811 138.762 143.937 137.554C145.053 136.347 146.863 134.745 149.425 133.278C151.978 131.798 155.289 130.517 159.09 129.651C160.99 129.214 163.002 128.859 165.106 128.573C167.205 128.292 169.399 128.089 171.65 128.089C173.9 128.089 176.103 128.301 178.177 128.768C180.25 129.235 182.184 129.971 183.898 130.91C185.617 131.841 187.093 133.014 188.283 134.282C189.469 135.559 190.343 136.948 190.927 138.307C192.126 141.03 192.187 143.523 191.975 145.141C191.854 145.959 191.693 146.583 191.555 146.994C191.486 147.189 191.429 147.344 191.39 147.457C191.351 147.569 191.33 147.621 191.326 147.621Z" fill="black"/>
<path d="M188.053 143.748C188.027 143.739 188.149 143.475 188.265 142.982C188.4 142.488 188.456 141.739 188.33 140.839C188.205 139.935 187.859 138.891 187.274 137.831C186.989 137.299 186.638 136.771 186.227 136.256C185.824 135.736 185.353 135.243 184.82 134.797C183.751 133.901 182.565 133.269 181.444 132.823C180.315 132.386 179.25 132.127 178.345 131.975C177.441 131.824 176.696 131.759 176.186 131.728C175.67 131.698 175.389 131.685 175.389 131.668C175.389 131.659 175.458 131.655 175.597 131.646C175.731 131.642 175.934 131.633 176.19 131.638C176.705 131.642 177.454 131.681 178.371 131.815C179.289 131.945 180.371 132.192 181.522 132.624C182.665 133.07 183.877 133.706 184.967 134.62C185.513 135.078 185.993 135.58 186.404 136.113C186.82 136.637 187.175 137.182 187.46 137.727C188.045 138.809 188.382 139.883 188.49 140.813C188.599 141.739 188.516 142.505 188.352 142.999C188.3 143.254 188.192 143.432 188.144 143.562C188.092 143.687 188.062 143.752 188.053 143.748Z" fill="#F5F5F5"/>
<g opacity="0.4">
<g opacity="0.4">
<g opacity="0.4">
<path opacity="0.4" d="M176.934 128.638C180.107 129.244 182.881 130.382 185.482 132.118C188.084 133.854 190.079 136.316 191.209 139.233C192.343 142.151 192.174 146.016 190.979 148.431L194.991 148.764C196.342 144.258 194.87 138.731 191.624 135.204C187.82 131.066 182.583 128.638 176.934 128.638Z" fill="black"/>
</g>
</g>
</g>
<path d="M175.658 123.752H140.561C138.509 123.752 136.847 122.09 136.847 120.038V97.1206C136.847 95.0691 138.509 93.4071 140.561 93.4071H175.658C177.709 93.4071 179.371 95.0691 179.371 97.1206V120.038C179.371 122.09 177.709 123.752 175.658 123.752Z" fill="black"/>
<path d="M179.371 100.176C179.371 100.237 169.81 100.289 158.02 100.289C146.226 100.289 136.665 100.237 136.665 100.176C136.665 100.116 146.226 100.064 158.02 100.064C169.81 100.064 179.371 100.116 179.371 100.176Z" fill="black"/>
<path d="M207.816 125.76C207.816 125.821 195.056 125.873 179.315 125.873C163.569 125.873 150.814 125.821 150.814 125.76C150.814 125.699 163.573 125.647 179.315 125.647C195.052 125.647 207.816 125.699 207.816 125.76Z" fill="black"/>
<path d="M207.841 123.752C207.841 123.752 208.776 122.635 208.867 121.207C208.958 119.779 208.305 118 206.772 118H187.166C183.989 118 181.414 120.575 181.414 123.752H207.841Z" fill="black"/>
<path d="M233.694 103.171L230.283 96.0603C229.352 94.0391 230.093 91.637 232.006 90.4987L242.203 84.4176C242.735 84.1017 243.345 83.9329 243.964 83.9329H246.167L247.05 98.3066L243.653 99.6051L245.804 103.102L233.694 103.171Z" fill="#FEC54B"/>
<path d="M246.202 84.4521C246.202 84.4521 249.69 85.2528 250.128 90.6284C250.565 96.0083 247.05 97.6789 247.05 97.6789L246.202 84.4521Z" fill="#EBEBEB"/>
<path d="M234.884 93.273C234.884 93.273 227.833 96.6143 226.972 97.164C226.375 97.5449 225.864 98.2114 226.331 99.3843C227.132 101.384 230.426 99.5012 230.426 99.5012L236.987 96.2205C236.987 96.2205 239.511 95.0302 238.58 93.537C237.537 91.8707 234.884 93.273 234.884 93.273Z" fill="black"/>
<path d="M224.903 92.0568C224.903 92.0568 231.525 93.1907 232.088 93.3422C232.65 93.4937 234.862 94.5411 234.975 95.2163C235.087 95.8915 234.975 97.8781 234.975 97.8781C234.975 97.8781 234.576 98.2027 234.325 97.5535C234.074 96.9043 234.113 95.6188 234.113 95.6188L232.875 95.1427L233.551 96.3416L233.663 99.1506C233.663 99.1506 232.798 99.0727 232.633 98.3975C232.464 97.7266 232.469 96.9735 232.469 96.9735L231.568 96.2074L232.244 97.1207L232.473 99.1463C232.473 99.1463 231.815 99.3583 231.607 98.9082C231.4 98.4581 231.382 97.1207 231.382 97.1207L228.837 96.2334L227.154 97.1726L224.505 95.7227L224.903 92.0568Z" fill="#FFBE9D"/>
<path d="M235.221 82.8292C235.221 85.5126 233.988 87.6854 232.469 87.6854C230.95 87.6854 229.716 85.5126 229.716 82.8292C229.716 80.1457 230.95 77.973 232.469 77.973C233.988 77.973 235.221 80.1501 235.221 82.8292Z" fill="black"/>
<path d="M232.919 86.1662L234.429 91.4076C235.105 91.0656 235.247 90.3904 235.135 89.8581C234.754 88.0619 234.542 86.7851 234.122 85.2097C234.075 85.0582 232.919 86.1662 232.919 86.1662Z" fill="black"/>
<g opacity="0.4">
<g opacity="0.4">
<path opacity="0.4" d="M202.977 149.634C202.825 149.201 202.674 148.76 202.531 148.305C202.397 147.881 202.237 147.444 202.124 147.024C201.916 146.271 201.795 145.496 201.748 145.051C199.194 155.447 203.094 162.766 209.785 163.281C219.562 164.034 231.486 164.579 236.308 163.315C245.098 161.008 248.323 153.681 249.093 152.469C249.864 151.261 256.854 138.48 252.569 126.176C248.284 113.871 240.813 100.804 240.813 100.804L233.694 103.176C233.694 103.176 234.996 109.252 237.061 116.524C239.329 124.518 242.367 137.022 242.198 144.336C242.03 151.651 238.117 156.581 238.117 156.581H205.803C205.799 156.576 205.106 155.884 202.977 149.634Z" fill="black"/>
</g>
</g>
<path d="M134.406 144.098L134.635 141.631L193.619 148.426C196.948 148.816 199.263 151.928 198.679 155.23L198.415 156.723L137.366 147.851C135.536 147.587 134.233 145.938 134.406 144.098Z" fill="#FEC54B"/>
<g opacity="0.6">
<g opacity="0.6">
<path opacity="0.6" d="M134.406 144.098L134.635 141.631L193.619 148.426C196.948 148.816 199.263 151.928 198.679 155.23L198.415 156.723L137.366 147.851C135.536 147.587 134.233 145.938 134.406 144.098Z" fill="black"/>
</g>
</g>
<g opacity="0.3">
<g opacity="0.3">
<g opacity="0.3">
<path opacity="0.3" d="M249.093 160.597C249.093 160.597 262.077 146.314 264.757 135.087C265.657 135.078 267.752 135.169 268.777 135.386C268.773 135.386 261.095 156.26 249.093 160.597Z" fill="black"/>
</g>
</g>
</g>
<path d="M264.566 130.058C264.575 130.058 264.597 130.179 264.636 130.417C264.67 130.655 264.739 131.006 264.783 131.46C264.865 132.369 264.921 133.711 264.683 135.338C264.449 136.965 263.891 138.861 262.969 140.826C262.069 142.8 260.822 144.838 259.533 146.972C256.931 151.253 254.036 154.75 251.932 157.251C250.876 158.498 250.002 159.493 249.396 160.182C249.102 160.511 248.868 160.77 248.695 160.965C248.531 161.142 248.444 161.233 248.44 161.229C248.435 161.225 248.509 161.125 248.66 160.935C248.825 160.736 249.05 160.463 249.331 160.121C249.933 159.403 250.772 158.39 251.811 157.148C253.884 154.624 256.75 151.114 259.342 146.855C260.636 144.721 261.879 142.696 262.783 140.74C263.709 138.792 264.276 136.922 264.527 135.316C264.787 133.706 264.757 132.382 264.696 131.473C264.666 131.019 264.61 130.668 264.592 130.426C264.566 130.183 264.558 130.058 264.566 130.058Z" fill="black"/>
<path d="M242.116 160.493C242.073 160.537 241.142 159.697 240.038 158.615C238.935 157.533 238.074 156.62 238.117 156.576C238.16 156.533 239.091 157.373 240.199 158.455C241.302 159.537 242.164 160.45 242.116 160.493Z" fill="black"/>
<path d="M203.583 160.056C203.531 160.03 203.886 159.16 204.535 158.208C205.18 157.251 205.859 156.598 205.898 156.641C205.946 156.684 205.353 157.394 204.721 158.338C204.085 159.273 203.643 160.082 203.583 160.056Z" fill="black"/>
<path d="M178.635 168.301C178.583 168.258 179.566 167.63 180.405 166.051C180.825 165.272 181.167 164.254 181.275 163.086C181.384 161.926 181.215 160.61 180.643 159.39C180.051 158.178 179.137 157.221 178.168 156.572C177.194 155.918 176.19 155.546 175.32 155.382C173.563 155.04 172.459 155.412 172.459 155.343C172.459 155.334 172.524 155.317 172.654 155.287C172.784 155.261 172.97 155.2 173.221 155.178C173.718 155.1 174.459 155.079 175.35 155.23C176.242 155.377 177.281 155.745 178.285 156.403C179.289 157.057 180.237 158.039 180.847 159.294C181.436 160.558 181.6 161.913 181.479 163.107C181.362 164.302 180.99 165.341 180.544 166.129C180.102 166.916 179.618 167.479 179.241 167.817C179.064 167.998 178.899 168.102 178.795 168.189C178.696 168.267 178.64 168.306 178.635 168.301Z" fill="black"/>
<path d="M157.094 163.778C157.034 163.783 156.938 162.848 156.882 161.696C156.826 160.545 156.835 159.61 156.895 159.606C156.956 159.602 157.051 160.532 157.107 161.688C157.164 162.839 157.159 163.778 157.094 163.778Z" fill="black"/>
<path d="M158.661 163.783C158.6 163.791 158.432 162.861 158.284 161.709C158.137 160.554 158.068 159.615 158.129 159.606C158.189 159.597 158.358 160.528 158.505 161.684C158.652 162.83 158.722 163.774 158.661 163.783Z" fill="black"/>
<path d="M182.985 123.752C182.985 123.812 175.813 123.864 166.971 123.864C158.124 123.864 150.953 123.812 150.953 123.752C150.953 123.691 158.124 123.639 166.971 123.639C175.813 123.639 182.985 123.691 182.985 123.752Z" fill="black"/>
<path d="M159.76 123.73C159.7 123.73 159.648 115.515 159.648 105.387C159.648 95.2552 159.7 87.0404 159.76 87.0404C159.821 87.0404 159.873 95.2509 159.873 105.387C159.873 115.515 159.825 123.73 159.76 123.73Z" fill="black"/>
<path d="M155.372 123.7C155.311 123.695 155.618 115.489 156.055 105.366C156.497 95.2422 156.904 87.0361 156.964 87.0404C157.025 87.0447 156.718 95.2509 156.281 105.374C155.839 115.498 155.432 123.704 155.372 123.7Z" fill="black"/>
<path d="M145.439 173.755C145.434 173.759 145.369 173.694 145.248 173.564C145.131 173.43 144.95 173.244 144.742 172.98C144.313 172.465 143.742 171.677 143.145 170.634C141.95 168.57 140.764 165.341 140.777 161.649C140.795 157.953 142.006 154.737 143.218 152.681C143.824 151.642 144.404 150.859 144.833 150.348C145.04 150.084 145.227 149.902 145.343 149.768C145.465 149.638 145.529 149.573 145.534 149.578C145.538 149.582 145.486 149.66 145.378 149.798C145.274 149.941 145.097 150.132 144.902 150.4C144.495 150.928 143.937 151.72 143.357 152.759C142.188 154.819 141.015 158 141.002 161.649C140.989 165.293 142.132 168.487 143.283 170.556C143.855 171.599 144.404 172.396 144.811 172.928C145.006 173.201 145.179 173.395 145.283 173.534C145.391 173.672 145.443 173.746 145.439 173.755Z" fill="black"/>
<path d="M207.443 140.778L207.309 141.034L204.704 145.938L201.051 149.456L208.352 159.177L214.438 158.169C214.438 158.169 213.754 156.78 210.703 156.511L209.534 150.703L213.823 144.055" fill="black"/>
<path d="M201.051 149.452L208.348 159.173L214.433 158.165L213.598 157.364L208.603 157.909L201.826 148.703L201.051 149.452Z" fill="#E0E0E0"/>
<path d="M210.213 153.836C210.179 153.906 209.794 153.767 209.326 153.858C208.854 153.936 208.547 154.204 208.486 154.148C208.422 154.113 208.703 153.689 209.274 153.59C209.85 153.482 210.261 153.78 210.213 153.836Z" fill="black"/>
<path d="M209.876 152.404C209.824 152.456 209.491 152.144 208.993 152.131C208.491 152.114 208.14 152.404 208.093 152.348C208.067 152.322 208.119 152.209 208.274 152.088C208.426 151.967 208.69 151.85 209.001 151.858C209.313 151.867 209.568 152.001 209.711 152.135C209.854 152.265 209.902 152.382 209.876 152.404Z" fill="black"/>
<path d="M209.603 150.538C209.543 150.582 209.274 150.266 208.828 150.192C208.383 150.11 208.023 150.318 207.98 150.253C207.958 150.227 208.023 150.127 208.179 150.036C208.335 149.945 208.59 149.872 208.876 149.924C209.157 149.976 209.374 150.127 209.491 150.266C209.607 150.404 209.633 150.517 209.603 150.538Z" fill="black"/>
<path d="M210.993 148.824C210.923 148.863 210.694 148.543 210.278 148.361C209.867 148.167 209.478 148.206 209.46 148.132C209.43 148.067 209.88 147.881 210.391 148.115C210.902 148.34 211.066 148.803 210.993 148.824Z" fill="black"/>
<path d="M211.577 147.444C211.551 147.47 211.309 147.258 210.941 146.894C210.733 146.682 210.521 146.466 210.304 146.249C210.192 146.119 210.049 146.016 209.941 145.803C209.889 145.695 209.872 145.561 209.915 145.427C209.954 145.288 210.114 145.176 210.248 145.176C210.521 145.172 210.69 145.284 210.867 145.375C211.036 145.479 211.183 145.604 211.309 145.734C211.555 146.003 211.698 146.301 211.772 146.561C211.919 147.089 211.793 147.427 211.772 147.414C211.724 147.409 211.772 147.085 211.59 146.621C211.499 146.392 211.352 146.137 211.127 145.907C211.014 145.795 210.88 145.691 210.733 145.604C210.59 145.522 210.404 145.436 210.274 145.444C210.214 145.453 210.188 145.475 210.17 145.518C210.153 145.565 210.157 145.635 210.183 145.691C210.24 145.816 210.378 145.946 210.491 146.076C210.694 146.31 210.889 146.535 211.084 146.76C211.412 147.158 211.607 147.418 211.577 147.444Z" fill="black"/>
<path d="M211.828 147.587C211.798 147.591 211.767 147.266 212.036 146.846C212.3 146.448 212.94 145.959 213.784 146.223C213.849 146.262 213.905 146.34 213.914 146.427C213.923 146.513 213.901 146.578 213.871 146.63C213.814 146.738 213.741 146.795 213.685 146.859C213.559 146.981 213.429 147.089 213.295 147.175C213.031 147.353 212.763 147.465 212.533 147.53C212.07 147.66 211.767 147.617 211.772 147.587C211.767 147.543 212.057 147.517 212.473 147.349C212.68 147.266 212.918 147.145 213.152 146.968C213.269 146.881 213.386 146.782 213.498 146.669C213.555 146.608 213.611 146.552 213.633 146.505C213.654 146.448 213.65 146.461 213.637 146.448C213.615 146.431 213.529 146.418 213.451 146.414C213.373 146.409 213.295 146.409 213.221 146.418C213.07 146.431 212.927 146.47 212.793 146.522C212.529 146.626 212.33 146.795 212.191 146.963C211.914 147.301 211.871 147.595 211.828 147.587Z" fill="black"/>
<path d="M205.872 148.461C205.937 148.859 205.669 149.236 205.271 149.305C204.872 149.37 204.496 149.101 204.427 148.703C204.362 148.305 204.63 147.929 205.028 147.859C205.426 147.794 205.803 148.063 205.872 148.461Z" fill="#E0E0E0"/>
<path d="M229.604 145.453L231.556 158.126L247.336 155.78C247.02 154.287 238.403 152.473 238.403 152.473L237.485 144.302L229.604 145.453Z" fill="black"/>
<path d="M233.425 152.516C233.131 152.646 232.971 153.018 233.088 153.317C233.205 153.616 233.585 153.78 233.88 153.659C234.174 153.533 234.382 153.092 234.23 152.806C234.079 152.525 233.624 152.352 233.369 152.542" fill="#E0E0E0"/>
<path d="M231.556 158.126L231.408 156.84L246.596 155.07C246.596 155.07 247.345 155.269 247.34 155.78L231.556 158.126Z" fill="#E0E0E0"/>
<path d="M238.649 152.356C238.658 152.434 238.277 152.525 237.935 152.832C237.585 153.126 237.437 153.49 237.364 153.468C237.29 153.464 237.338 152.988 237.758 152.624C238.173 152.261 238.654 152.282 238.649 152.356Z" fill="black"/>
<path d="M240.407 152.793C240.437 152.867 240.121 153.044 239.909 153.412C239.684 153.771 239.671 154.135 239.593 154.139C239.524 154.161 239.402 153.72 239.675 153.269C239.943 152.819 240.394 152.72 240.407 152.793Z" fill="black"/>
<path d="M241.64 154.633C241.571 154.659 241.406 154.291 241.545 153.841C241.675 153.386 242.017 153.166 242.056 153.226C242.107 153.282 241.908 153.542 241.804 153.919C241.688 154.287 241.718 154.615 241.64 154.633Z" fill="black"/>
<path d="M238.234 150.517C238.212 150.59 237.844 150.538 237.412 150.634C236.979 150.72 236.663 150.915 236.611 150.854C236.559 150.807 236.845 150.469 237.355 150.365C237.866 150.257 238.26 150.447 238.234 150.517Z" fill="black"/>
<path d="M237.58 148.699C237.585 148.729 237.29 148.824 236.788 148.811C236.542 148.807 236.243 148.768 235.923 148.682C235.762 148.638 235.598 148.582 235.433 148.508C235.356 148.474 235.26 148.439 235.165 148.357C235.066 148.288 234.988 148.093 235.07 147.954C235.135 147.82 235.269 147.747 235.382 147.729C235.498 147.708 235.594 147.716 235.685 147.725C235.866 147.742 236.039 147.777 236.2 147.82C236.52 147.911 236.793 148.05 237 148.188C237.416 148.474 237.585 148.742 237.559 148.759C237.528 148.79 237.312 148.573 236.901 148.353C236.693 148.24 236.433 148.132 236.135 148.058C235.983 148.024 235.827 147.998 235.659 147.985C235.485 147.967 235.343 147.985 235.312 148.067C235.299 148.097 235.299 148.11 235.343 148.154C235.386 148.193 235.459 148.227 235.537 148.262C235.689 148.331 235.845 148.392 235.992 148.439C236.286 148.534 236.563 148.591 236.801 148.617C237.273 148.682 237.572 148.656 237.58 148.699Z" fill="black"/>
<path d="M237.494 148.824C237.468 148.842 237.273 148.586 237.173 148.093C237.121 147.846 237.104 147.543 237.152 147.21C237.178 147.045 237.217 146.872 237.282 146.699C237.351 146.53 237.433 146.305 237.727 146.223C237.883 146.193 238.03 146.297 238.091 146.396C238.16 146.496 238.182 146.587 238.216 146.673C238.273 146.855 238.294 147.032 238.294 147.206C238.294 147.548 238.199 147.85 238.078 148.071C237.831 148.526 237.524 148.664 237.511 148.643C237.481 148.608 237.727 148.417 237.905 147.989C237.991 147.777 238.056 147.509 238.043 147.21C238.039 147.063 238.013 146.907 237.961 146.755C237.913 146.591 237.827 146.465 237.766 146.491C237.688 146.5 237.572 146.647 237.528 146.79C237.468 146.942 237.424 147.097 237.394 147.249C237.338 147.548 237.333 147.829 237.359 148.058C237.411 148.53 237.537 148.807 237.494 148.824Z" fill="black"/>
<path d="M217.186 115.684L203.648 145.176L212.59 150.543L231.3 115.056" fill="black"/>
<path d="M239.502 151.214L229.789 152.772L223.977 118.086L195.26 120.168C194.498 120.215 193.732 120.15 192.996 119.947C184.928 117.735 186.023 107.456 186.798 105.807L226.535 104.664C230.846 104.539 234.559 107.677 235.156 111.949L239.502 151.214Z" fill="black"/>
<path d="M186.409 107.439L186.551 92.775C186.551 92.775 184.66 83.2402 184.097 79.492C183.227 73.6706 182.037 70.9093 191.568 66.7716L193.65 65.9666L196.874 66.0098C200.722 66.2998 204.773 69.7753 204.864 72.0822L208.573 105.128L186.409 107.439Z" fill="#FEC54B"/>
<path d="M187.006 70.1821C187.006 70.1821 184.318 75.9732 184.855 81.2492L194.883 90.875C197.134 93.3766 199.943 94.4413 203.539 94.6577L224.288 96.9257L224.864 91.4982L205.123 85.9063C204.34 85.7634 203.946 84.9411 203.345 84.4174L187.006 70.1821Z" fill="#FEC54B"/>
<path d="M185.387 71.8528C185.387 71.8528 185.5 71.7273 185.785 71.5844C186.071 71.4459 186.521 71.3031 187.127 71.2079C187.729 71.1213 188.49 71.0564 189.369 71.2122C189.586 71.2642 189.815 71.3161 190.027 71.4373C190.235 71.5585 190.434 71.7013 190.637 71.8528C191.04 72.1644 191.442 72.5193 191.849 72.9132C192.68 73.6879 193.468 74.6704 194.39 75.6659C195.307 76.6657 196.32 77.7304 197.419 78.8514C198.514 79.9724 199.696 81.1453 200.964 82.3572C201.6 82.9588 202.254 83.5734 202.946 84.175C203.297 84.465 203.643 84.8026 203.977 85.1185C204.314 85.4302 204.699 85.7201 205.141 85.8024H205.145H205.149C211.018 87.4601 217.753 89.3644 224.89 91.3857L224.981 91.4116L224.972 91.5069C224.933 91.8921 224.886 92.3076 224.843 92.7231C224.691 94.1644 224.54 95.5926 224.397 96.9344L224.384 97.0469L224.271 97.0339C221.254 96.7006 218.316 96.3804 215.489 96.0687C214.074 95.9129 212.689 95.7614 211.334 95.6099C209.975 95.4714 208.651 95.3373 207.357 95.2074C206.063 95.0646 204.808 94.9174 203.591 94.74C202.375 94.5625 201.194 94.3375 200.107 93.9306C199.017 93.5324 198.043 92.9611 197.168 92.3552C196.29 91.7449 195.493 91.1087 194.745 90.4811C191.78 87.9491 189.603 85.6898 188.092 84.149C187.344 83.3743 186.768 82.764 186.383 82.3485C186.197 82.1451 186.054 81.985 185.95 81.8724C185.855 81.7642 185.807 81.7036 185.807 81.7036C185.807 81.7036 185.863 81.7512 185.963 81.8551C186.071 81.9633 186.218 82.1191 186.413 82.3182C186.816 82.7294 187.4 83.3267 188.149 84.0928C189.676 85.6163 191.871 87.8583 194.84 90.3686C195.589 90.9875 196.389 91.6194 197.264 92.221C198.134 92.8226 199.094 93.381 200.168 93.7662C201.241 94.1643 202.405 94.3808 203.622 94.5539C204.834 94.727 206.089 94.8742 207.383 95.0127C208.677 95.1425 210.001 95.2724 211.36 95.4065C212.715 95.5537 214.104 95.7052 215.515 95.8566C218.342 96.1639 221.28 96.4842 224.302 96.8132L224.176 96.9127C224.319 95.571 224.47 94.1427 224.622 92.7014C224.665 92.2859 224.708 91.8704 224.752 91.4852L224.834 91.6064C217.697 89.5809 210.967 87.6678 205.098 86.0015L205.106 86.0058C204.595 85.9106 204.189 85.5903 203.842 85.27C203.492 84.9368 203.176 84.6251 202.817 84.3265C202.124 83.7205 201.466 83.1016 200.83 82.4957C199.566 81.2795 198.389 80.0979 197.294 78.9726C196.203 77.8473 195.195 76.7782 194.277 75.7698C193.355 74.7656 192.581 73.7831 191.763 73.0084C191.36 72.6145 190.962 72.2553 190.568 71.948C190.369 71.7965 190.174 71.6494 189.975 71.5325C189.78 71.4157 189.555 71.3637 189.347 71.3118C188.49 71.1473 187.729 71.2036 187.131 71.2772C186.53 71.3594 186.08 71.4892 185.794 71.6191C185.513 71.7446 185.392 71.8615 185.387 71.8528Z" fill="black"/>
<path d="M190.564 53.2506L191.572 67.5248C191.737 69.8533 193.676 71.6625 196.013 71.6625C198.584 71.6625 200.622 69.4854 200.454 66.9188C200.363 65.5598 200.285 64.4475 200.285 64.4475C200.285 64.4475 203.739 63.9108 203.782 60.4569C203.808 58.4617 203.462 53.9344 203.167 50.4633C202.968 48.1174 201.003 46.3169 198.649 46.3169H196.563C192.966 46.529 190.257 49.6669 190.564 53.2506Z" fill="#FFBE9D"/>
<path d="M200.289 64.3999C200.289 64.3999 198.103 64.5774 195.783 63.1188C195.783 63.1188 196.848 65.6075 200.298 65.2958L200.289 64.3999Z" fill="#EB996E"/>
<path d="M202.388 54.9039C202.397 55.1636 202.185 55.3887 201.912 55.4017C201.639 55.4146 201.414 55.2155 201.401 54.9559C201.393 54.6962 201.605 54.4711 201.877 54.4581C202.15 54.4451 202.38 54.6442 202.388 54.9039Z" fill="black"/>
<path d="M202.57 53.93C202.509 53.9949 202.137 53.7179 201.605 53.7179C201.072 53.7136 200.683 53.9863 200.627 53.9214C200.596 53.8911 200.661 53.7785 200.83 53.653C200.999 53.5318 201.28 53.4106 201.613 53.4106C201.942 53.4106 202.224 53.5362 202.384 53.6573C202.544 53.7872 202.6 53.8997 202.57 53.93Z" fill="black"/>
<path d="M197.402 54.9039C197.411 55.1636 197.199 55.3887 196.926 55.4017C196.653 55.4146 196.428 55.2155 196.415 54.9559C196.407 54.6962 196.619 54.4711 196.891 54.4581C197.164 54.4451 197.393 54.6442 197.402 54.9039Z" fill="black"/>
<path d="M197.35 54.0296C197.29 54.0946 196.913 53.8176 196.385 53.8176C195.853 53.8132 195.463 54.0859 195.407 54.021C195.377 53.9907 195.441 53.8781 195.61 53.7526C195.779 53.6314 196.06 53.5103 196.394 53.5103C196.723 53.5103 197.004 53.6358 197.164 53.757C197.324 53.8825 197.38 53.9993 197.35 54.0296Z" fill="black"/>
<path d="M199.276 57.9681C199.272 57.9378 199.605 57.8816 200.137 57.8123C200.272 57.7993 200.401 57.7734 200.423 57.6782C200.453 57.5786 200.397 57.4358 200.332 57.2756C200.207 56.9467 200.073 56.6048 199.93 56.2412C199.371 54.7696 198.969 53.5621 199.029 53.5405C199.09 53.5188 199.588 54.6917 200.146 56.1633C200.28 56.5269 200.41 56.8731 200.531 57.2021C200.583 57.3579 200.67 57.531 200.601 57.7344C200.566 57.834 200.466 57.9075 200.376 57.9335C200.289 57.9595 200.211 57.9595 200.146 57.9638C199.614 57.9941 199.281 57.9984 199.276 57.9681Z" fill="black"/>
<path d="M197.714 58.336C197.8 58.3317 197.8 58.9073 198.294 59.3185C198.787 59.7297 199.402 59.6648 199.406 59.7427C199.415 59.7773 199.268 59.8552 199.008 59.8595C198.752 59.8682 198.38 59.786 198.082 59.5349C197.779 59.2839 197.653 58.9506 197.632 58.7126C197.61 58.4745 197.675 58.3317 197.714 58.336Z" fill="black"/>
<path d="M197.489 51.9479C197.437 52.0907 196.904 52.0258 196.281 52.0993C195.658 52.1599 195.156 52.346 195.074 52.2162C195.035 52.1556 195.125 52.0171 195.329 51.8786C195.528 51.7401 195.853 51.6059 196.225 51.5627C196.597 51.5237 196.943 51.58 197.168 51.6752C197.398 51.7661 197.51 51.8786 197.489 51.9479Z" fill="black"/>
<path d="M202.375 52.3936C202.28 52.5147 201.916 52.3892 201.475 52.3849C201.034 52.3633 200.661 52.4671 200.579 52.3416C200.54 52.281 200.601 52.1598 200.761 52.0473C200.921 51.9348 201.189 51.8395 201.492 51.8482C201.795 51.8569 202.055 51.9651 202.211 52.0906C202.367 52.2118 202.419 52.333 202.375 52.3936Z" fill="black"/>
<path d="M191.728 55.8476C191.667 55.8216 189.352 55.1464 189.43 57.5096C189.503 59.8727 191.862 59.3101 191.862 59.2408C191.866 59.1673 191.728 55.8476 191.728 55.8476Z" fill="#FFBE9D"/>
<path d="M191.113 58.3666C191.105 58.3579 191.074 58.3969 191.005 58.4315C190.94 58.4661 190.823 58.4878 190.698 58.4488C190.447 58.3666 190.222 57.977 190.196 57.5485C190.183 57.3321 190.222 57.1287 190.291 56.9556C190.356 56.7825 190.464 56.6569 190.59 56.631C190.715 56.5964 190.806 56.6699 190.836 56.7349C190.871 56.7998 190.858 56.8474 190.871 56.8517C190.88 56.856 190.919 56.8084 190.897 56.7132C190.884 56.6656 190.858 56.6137 190.797 56.5661C190.741 56.5228 190.655 56.5011 190.568 56.5141C190.386 56.5314 190.226 56.7046 190.148 56.895C190.062 57.0854 190.014 57.3148 190.027 57.5572C190.057 58.0333 190.317 58.4704 190.659 58.557C190.828 58.596 190.962 58.5397 191.031 58.4834C191.109 58.4228 191.122 58.3709 191.113 58.3666Z" fill="#EB996E"/>
<path d="M190.417 55.7652C190.776 55.6786 191.399 56.0119 191.555 56.3495C191.711 56.6871 191.741 57.068 191.897 57.4056C192.048 57.7432 192.394 58.0505 192.758 57.9639C193.005 57.9033 193.187 57.6739 193.251 57.4229C193.316 57.1762 193.29 56.9165 193.26 56.6611C193.122 55.5575 192.888 54.4624 192.845 53.3544C192.801 52.2421 192.957 51.0908 193.541 50.143C194.126 49.1951 195.195 48.4983 196.303 48.5892C197.039 48.6498 197.709 49.0306 198.441 49.1345C199.307 49.2557 200.22 48.9484 200.839 48.3338C200.917 48.2559 201.289 48.0135 201.289 48.0135C201.289 47.9573 201.237 47.4638 201.042 47.2821C199.597 45.9447 196.987 45.5724 195.078 46.0529C193.165 46.5333 191.373 47.8837 190.551 49.6755C189.72 51.463 189.962 53.9517 190.417 55.7652Z" fill="black"/>
<path d="M203.206 49.9308C203.206 49.9308 194.143 47.0136 190.222 54.8562C190.222 54.8562 189.637 52.8956 189.637 51.8438C189.637 51.1427 190.057 46.9574 194.364 45.6416C194.359 45.6416 200.847 43.1659 203.206 49.9308Z" fill="#FEC54B"/>
<path d="M195.416 50.1299C195.736 50.6493 196.307 50.9999 196.913 51.0561C197.519 51.1124 198.147 50.8657 198.553 50.4156C198.731 50.8614 199.211 51.1687 199.692 51.1427C200.172 51.1167 200.618 50.7618 200.748 50.2987C201.012 50.5541 201.285 50.8181 201.631 50.9436C201.977 51.0691 202.41 51.0215 202.639 50.7315C202.869 50.4372 202.804 49.9914 202.579 49.6928C202.354 49.3941 202.003 49.2167 201.661 49.0739C200.583 48.6237 199.397 48.3987 198.242 48.5545C197.086 48.7103 195.965 49.2729 195.242 50.1862" fill="black"/>
<g opacity="0.4">
<g opacity="0.4">
<g opacity="0.4">
<g opacity="0.4">
<path opacity="0.4" d="M203.206 49.9308C203.206 49.9308 202.176 48.7016 200.324 48.6237C197.649 48.5069 192.646 50.0087 190.222 54.8606C190.222 54.8606 189.637 52.8999 189.637 51.8482C189.637 51.147 190.057 46.9617 194.364 45.646C194.359 45.6416 200.847 43.1659 203.206 49.9308Z" fill="black"/>
</g>
</g>
</g>
</g>
<path d="M190.598 53.9387C191.944 51.8828 193.797 50.1818 195.879 48.8791C197.961 47.5763 201.406 46.2908 203.782 45.6589C204.496 45.4685 205.236 45.304 205.963 45.4295C206.69 45.5551 207.4 46.0398 207.582 46.7539C207.807 47.6499 206.219 49.0306 205.474 49.5716C204.73 50.1126 203.206 50.9133 203.206 50.9133C203.206 50.9133 203.228 49.2513 200.57 48.9094C196.952 48.4506 190.598 53.9387 190.598 53.9387Z" fill="#FEC54B"/>
<g opacity="0.3">
<g opacity="0.3">
<g opacity="0.3">
<path opacity="0.3" d="M187.408 83.3917C188.343 85.6467 189.287 88.4297 190.642 90.4596C191.996 92.4895 193.805 94.29 196.06 95.2335C198.887 96.4151 202.232 96.6099 205.046 95.3937C205.275 95.2941 205.725 95.1686 205.682 94.9219C205.682 94.9219 204.751 94.818 204.461 94.7704C198.774 93.8096 198.16 93.1084 195.437 90.9573C193.741 89.6199 189.979 85.5644 187.408 83.3917Z" fill="black"/>
</g>
</g>
</g>
<path d="M205.479 99.8126C205.491 99.817 205.418 100.012 205.24 100.341C205.067 100.67 204.769 101.124 204.323 101.622C203.44 102.626 201.873 103.712 199.917 104.314C197.965 104.916 196.112 105.024 194.792 105.08C194.13 105.106 193.593 105.11 193.226 105.11C192.853 105.11 192.65 105.102 192.65 105.084C192.65 105.067 192.853 105.05 193.221 105.024C193.637 104.998 194.16 104.963 194.784 104.924C196.095 104.829 197.93 104.69 199.852 104.102C201.769 103.509 203.314 102.47 204.206 101.514C205.115 100.561 205.435 99.7867 205.479 99.8126Z" fill="black"/>
<path d="M229.967 153.806C229.963 153.806 229.95 153.763 229.932 153.672C229.911 153.572 229.885 153.438 229.854 153.274C229.789 152.91 229.694 152.395 229.577 151.737C229.344 150.387 229.006 148.461 228.595 146.085C227.785 141.298 226.669 134.706 225.435 127.426C224.886 124.133 224.362 120.977 223.882 118.099L223.994 118.186C218.952 118.554 214.637 118.869 211.568 119.095C210.053 119.198 208.846 119.281 208.002 119.337C207.599 119.359 207.283 119.38 207.049 119.393C206.95 119.398 206.868 119.402 206.803 119.402C206.746 119.402 206.72 119.402 206.72 119.398C206.72 119.393 206.746 119.389 206.803 119.38C206.868 119.372 206.95 119.363 207.045 119.354C207.274 119.333 207.59 119.302 207.993 119.263C208.837 119.19 210.044 119.09 211.555 118.96C214.619 118.718 218.93 118.372 223.972 117.969L224.068 117.961L224.085 118.056C224.57 120.93 225.102 124.085 225.656 127.379C226.864 134.663 227.959 141.259 228.751 146.05C229.136 148.431 229.448 150.361 229.664 151.711C229.763 152.369 229.846 152.884 229.902 153.252C229.924 153.421 229.945 153.551 229.958 153.655C229.967 153.759 229.967 153.806 229.967 153.806Z" fill="black"/>
<path d="M226.894 114.996C226.933 115.048 226.18 115.697 225.319 116.571C224.457 117.441 223.821 118.212 223.769 118.168C223.722 118.134 224.284 117.294 225.158 116.411C226.033 115.528 226.859 114.948 226.894 114.996Z" fill="black"/>
<path d="M200.367 67.2261C200.376 67.2261 200.393 67.2737 200.419 67.3689C200.449 67.4641 200.475 67.6069 200.501 67.793C200.544 68.1653 200.523 68.7279 200.289 69.3685C200.055 70.0004 199.601 70.7102 198.865 71.2426C198.134 71.7749 197.121 72.0519 196.086 71.9827C195.048 71.9134 194.096 71.5239 193.39 70.9742C192.676 70.4289 192.187 69.771 191.858 69.1867C191.533 68.5937 191.36 68.0787 191.274 67.7151C191.23 67.5333 191.2 67.3905 191.187 67.2953C191.174 67.2001 191.17 67.1481 191.178 67.1438C191.226 67.1265 191.334 67.9705 192.001 69.1088C192.338 69.6671 192.827 70.2947 193.52 70.8098C194.204 71.3291 195.117 71.6927 196.108 71.7619C197.095 71.8269 198.051 71.5672 198.753 71.0738C199.458 70.5847 199.908 69.9138 200.151 69.3122C200.389 68.7063 200.441 68.1653 200.423 67.8017C200.397 67.4338 200.341 67.2347 200.367 67.2261Z" fill="black"/>
<path d="M206.47 86.1271C206.452 86.1271 206.422 85.9669 206.379 85.6769C206.331 85.335 206.271 84.9239 206.206 84.4391C206.063 83.3354 205.877 81.9158 205.673 80.349C205.478 78.7476 205.323 77.2977 205.227 76.2459C205.18 75.7179 205.145 75.2937 205.128 74.9994C205.111 74.7051 205.106 74.5406 205.124 74.5406C205.141 74.5406 205.171 74.7008 205.214 74.9908C205.262 75.3327 205.318 75.7439 205.383 76.2286C205.522 77.3323 205.699 78.7519 205.894 80.323C206.089 81.9201 206.262 83.3701 206.361 84.4218C206.413 84.9498 206.448 85.374 206.465 85.6683C206.483 85.9626 206.487 86.1271 206.47 86.1271Z" fill="black"/>
</svg>
